<svg width="198" height="30" viewBox="0 0 198 30" fill="none" xmlns="http://www.w3.org/2000/svg">
<g clip-path="url(#clip0_147_4372)">
<path d="M54.4816 13.378L46.5893 11.5688C44.5308 11.0784 43.6525 10.1584 43.6525 8.49147C43.6525 4.65185 47.3353 4.07808 49.5298 4.07808C50.9801 4.07808 55.7288 4.45334 55.9464 9.28097L55.9654 9.70155H60.3543L60.3307 9.23927C60.251 7.67388 59.9655 5.36883 58.4091 3.43452C56.5763 1.15576 53.4455 0.000976562 49.1065 0.000976562C41.759 0.000976562 39.1521 4.84401 39.1521 8.99182C39.1521 11.4917 40.2335 14.7241 45.3856 15.9305L51.0462 17.2394C55.5629 18.3117 56.6008 19.1465 56.6008 21.7035C56.6008 25.5124 51.8448 25.923 49.799 25.923C47.6381 25.923 42.6128 25.3365 42.6128 19.8925V19.452H38.2275V19.8916C38.2275 22.3181 38.5856 24.8869 41.1843 27.2291C42.6962 28.5996 44.907 30.0001 49.838 30.0001C55.2829 30.0001 61.1012 27.6896 61.1012 21.2014C61.1012 17.1089 58.8134 14.4023 54.4816 13.378Z" fill="#AFAFB3"/>
<path d="M69.9616 4.8105H77.1097C80.4943 4.8105 82.1395 6.1783 82.1395 8.99185C82.1395 12.1245 80.5406 13.5213 76.9556 13.5213H69.9616V4.8105ZM86.8701 8.95378C86.8701 4.03642 83.3958 0.733398 78.2255 0.733398H65.3452V29.2695H69.9616V17.5984H78.2264C84.6068 17.5984 86.8701 12.9412 86.8701 8.95378Z" fill="#AFAFB3"/>
<path d="M99.9541 17.0255H92.6057L96.4299 6.51821L99.9541 17.0255ZM94.1757 0.733398L83.4463 29.2695H88.2431L91.1319 21.2195H101.6L104.335 29.2695H109.36L99.0269 0.733398H94.1757Z" fill="#AFAFB3"/>
<path d="M112.007 4.89754L125.174 4.92564L112.103 25.4345L112.007 25.555V29.2695H131.342V25.0764H118.105L131.342 4.56307V0.733422L112.007 0.705322V4.89754Z" fill="#AFAFB3"/>
<path d="M135.99 0.732422H140.607V29.2685H135.99V0.732422Z" fill="#AFAFB3"/>
<path d="M157.976 25.8078C152.395 25.8078 148.786 21.5658 148.786 15.0014C148.786 8.43618 152.394 4.1932 157.976 4.1932C163.559 4.1932 167.166 8.43618 167.166 15.0014C167.166 21.5658 163.558 25.8078 157.976 25.8078ZM157.976 0.000976562C146.986 0.000976562 144.055 9.42963 144.055 15.0014C144.055 20.5723 146.986 30.0001 157.976 30.0001C168.965 30.0001 171.897 20.5723 171.897 15.0014C171.898 9.42963 168.965 0.000976562 157.976 0.000976562Z" fill="#AFAFB3"/>
<path d="M190.662 13.378L182.769 11.5688C180.711 11.0784 179.834 10.1584 179.834 8.49147C179.834 4.65185 183.516 4.07808 185.709 4.07808C187.161 4.07808 191.909 4.45334 192.126 9.28097L192.145 9.70155H196.534L196.51 9.23927C196.431 7.67388 196.147 5.36883 194.59 3.43452C192.757 1.15576 189.625 0.000976562 185.286 0.000976562C177.94 0.000976562 175.333 4.84401 175.333 8.99182C175.333 11.4917 176.413 14.7241 181.567 15.9305L187.227 17.2394C191.743 18.3117 192.781 19.1465 192.781 21.7035C192.781 25.5124 188.025 25.923 185.98 25.923C183.819 25.923 178.793 25.3365 178.793 19.8925V19.452H174.407V19.8916C174.407 22.3181 174.766 24.8869 177.364 27.2291C178.878 28.5996 181.088 30.0001 186.019 30.0001C191.464 30.0001 197.283 27.6896 197.283 21.2014C197.282 17.1089 194.993 14.4023 190.662 13.378Z" fill="#AFAFB3"/>
<path d="M24.8613 0H30.1657V5.3035H24.8613V0Z" fill="#9D9EA2"/>
<path d="M24.8615 24.0638H6.09933V5.3035H19.5054H22.1576V0H16.8532V0.000906427H0.794922V5.3035V24.0638V27.782V29.3682L24.8615 29.3691H30.165V24.0638V7.9548H24.8615V24.0638Z" fill="#9D9EA2"/>
</g>
<defs>
<clipPath id="clip0_147_4372">
<rect width="196.487" height="30" fill="white" transform="translate(0.794922)"/>
</clipPath>
</defs>
</svg>
