<svg width="328" height="216" viewBox="0 0 328 216" fill="none" xmlns="http://www.w3.org/2000/svg">
<rect width="328" height="216" fill="white"/>
<path d="M70.5923 62.0977C83.6962 62.0977 96.5058 65.9834 107.401 73.2635C118.297 80.5437 126.789 90.8912 131.803 102.998C136.818 115.104 138.13 128.426 135.574 141.278C133.017 154.13 126.707 165.935 117.441 175.201C108.175 184.467 96.37 190.777 83.5179 193.333C70.6658 195.89 57.3442 194.578 45.2378 189.563C33.1314 184.549 22.7839 176.057 15.5038 165.161C8.22364 154.266 4.33789 141.456 4.33789 128.352C4.33789 110.78 11.3182 93.9282 23.7434 81.5031C36.1685 69.078 53.0205 62.0977 70.5923 62.0977V62.0977Z" fill="#FEE185" fill-opacity="0.1"/>
<path fill-rule="evenodd" clip-rule="evenodd" d="M24.0436 131.647C24.0093 131.139 23.9832 130.628 23.9652 130.115C23.9472 129.602 23.9376 129.091 23.9362 128.581L25.1264 128.578C25.1278 129.075 25.1372 129.573 25.1547 130.073C25.1723 130.573 25.1978 131.071 25.2311 131.567L24.0436 131.647ZM24.85 137.713C24.6508 136.718 24.483 135.71 24.3477 134.692L25.5276 134.535C25.6595 135.527 25.823 136.509 26.0171 137.48L24.85 137.713ZM24.0265 125.523C24.0902 124.497 24.187 123.481 24.3161 122.473L25.4967 122.625C25.3709 123.606 25.2765 124.597 25.2145 125.596L24.0265 125.523ZM26.4431 143.623C26.1144 142.661 25.8161 141.685 25.5494 140.695L26.6986 140.386C26.9585 141.35 27.2492 142.301 27.5694 143.239L26.4431 143.623ZM24.805 119.45C25.0019 118.444 25.2311 117.449 25.4916 116.466L26.6421 116.771C26.3883 117.729 26.1649 118.698 25.9731 119.678L24.805 119.45ZM28.7998 149.274C28.3467 148.362 27.9224 147.433 27.5282 146.487L28.6267 146.029C29.0109 146.95 29.4243 147.856 29.8657 148.744L28.7998 149.274ZM26.3736 113.533C26.7008 112.563 27.059 111.606 27.4471 110.665L28.5475 111.118C28.1693 112.036 27.8203 112.968 27.5015 113.914L26.3736 113.533ZM31.8768 154.565C31.3078 153.719 30.7655 152.854 30.2513 151.97L31.2802 151.371C31.7813 152.233 32.3097 153.076 32.8643 153.9L31.8768 154.565ZM28.7064 107.874C29.1575 106.956 29.6378 106.055 30.1463 105.171L31.1779 105.765C30.6824 106.626 30.2142 107.504 29.7747 108.399L28.7064 107.874ZM31.7597 102.568C32.3261 101.718 32.9196 100.887 33.5392 100.077L34.4847 100.8C33.8809 101.59 33.3024 102.4 32.7503 103.228L31.7597 102.568ZM35.6179 159.409C34.9432 158.644 34.2929 157.857 33.6684 157.048L34.6104 156.321C35.2191 157.109 35.8529 157.876 36.5105 158.622L35.6179 159.409ZM35.4772 97.7062C36.1488 96.9372 36.8451 96.1902 37.5652 95.4665L38.409 96.3061C37.7071 97.0115 37.0283 97.7395 36.3738 98.4891L35.4772 97.7062ZM39.9567 163.727C39.1878 163.055 38.4408 162.359 37.7171 161.639L38.5567 160.795C39.262 161.497 39.9901 162.176 40.7396 162.83L39.9567 163.727ZM39.7945 93.3673C40.5595 92.6926 41.3469 92.0423 42.1555 91.4178L42.883 92.3599C42.0949 92.9685 41.3275 93.6023 40.5819 94.26L39.7945 93.3673ZM44.8191 167.444C43.9687 166.878 43.1378 166.284 42.3275 165.665L43.0504 164.719C43.8402 165.323 44.6501 165.901 45.4789 166.454L44.8191 167.444ZM50.1246 170.497C49.2066 170.046 48.3052 169.566 47.4218 169.058L48.0155 168.026C48.8765 168.521 49.7549 168.99 50.6495 169.429L50.1246 170.497ZM44.6389 89.6262C45.4846 89.0572 46.3501 88.5149 47.2343 88.0007L47.8327 89.0296C46.971 89.5307 46.1275 90.0592 45.3034 90.6137L44.6389 89.6262ZM55.7839 172.83C54.8134 172.503 53.8568 172.145 52.9154 171.757L53.369 170.656C54.2864 171.035 55.2185 171.384 56.1642 171.702L55.7839 172.83ZM49.9301 86.5492C50.8421 86.0961 51.7713 85.6719 52.7166 85.2776L53.1748 86.3761C52.2537 86.7603 51.3483 87.1737 50.4597 87.6152L49.9301 86.5492ZM61.7002 174.399C60.6942 174.202 59.6993 173.973 58.7167 173.712L59.0217 172.562C59.9791 172.816 60.9485 173.039 61.9288 173.231L61.7002 174.399ZM55.5804 84.1925C56.5424 83.8639 57.5188 83.5656 58.5085 83.2988L58.8183 84.448C57.8539 84.708 56.9025 84.9986 55.9652 85.3188L55.5804 84.1925ZM67.7732 175.177C66.7479 175.114 65.7311 175.017 64.7239 174.888L64.8752 173.707C65.8567 173.833 66.8477 173.927 67.8469 173.989L67.7732 175.177ZM61.4906 82.5994C62.4863 82.4002 63.4939 82.2324 64.5121 82.0972L64.6688 83.2771C63.6764 83.4089 62.6945 83.5724 61.7241 83.7666L61.4906 82.5994ZM72.3655 175.239C71.8526 175.257 71.3412 175.266 70.8316 175.268L70.8283 174.077C71.3251 174.076 71.8237 174.067 72.3238 174.049C72.824 174.032 73.322 174.006 73.8177 173.973L73.8977 175.16C73.3892 175.195 72.8785 175.221 72.3655 175.239ZM67.5568 81.793C68.0652 81.7588 68.576 81.7326 69.0889 81.7146C69.6019 81.6967 70.1132 81.687 70.6228 81.6856L70.6261 82.8758C70.1293 82.8772 69.6308 82.8866 69.1306 82.9042C68.6304 82.9217 68.1324 82.9472 67.6367 82.9806L67.5568 81.793ZM79.9638 174.354C78.9681 174.553 77.9606 174.721 76.9423 174.856L76.7856 173.676C77.7781 173.544 78.76 173.381 79.7303 173.187L79.9638 174.354ZM73.6812 81.7759C74.7065 81.8396 75.7233 81.9364 76.7305 82.0655L76.5793 83.2461C75.5977 83.1203 74.6068 83.0259 73.6075 82.9639L73.6812 81.7759ZM85.874 172.761C84.9121 173.089 83.9357 173.388 82.9459 173.654L82.6361 172.505C83.6006 172.245 84.5519 171.955 85.4892 171.634L85.874 172.761ZM79.7542 82.5544C80.7602 82.7513 81.7551 82.9805 82.7377 83.241L82.4327 84.3915C81.4753 84.1377 80.5059 83.9144 79.5256 83.7225L79.7542 82.5544ZM91.5243 170.404C90.6123 170.857 89.6831 171.281 88.7379 171.676L88.2797 170.577C89.2007 170.193 90.1061 169.78 90.9948 169.338L91.5243 170.404ZM85.6705 84.1231C86.641 84.4502 87.5976 84.8084 88.5391 85.1965L88.0854 86.2969C87.168 85.9188 86.2359 85.5697 85.2903 85.251L85.6705 84.1231ZM96.8155 167.327C95.9699 167.896 95.1043 168.438 94.2201 168.953L93.6218 167.924C94.4834 167.423 95.3269 166.894 96.1511 166.34L96.8155 167.327ZM91.3299 86.4558C92.2479 86.9069 93.1492 87.3873 94.0326 87.8957L93.4389 88.9273C92.578 88.4318 91.6996 87.9637 90.805 87.5241L91.3299 86.4558ZM96.6354 89.5091C97.4857 90.0755 98.3167 90.6691 99.127 91.2886L98.404 92.2342C97.6142 91.6303 96.8043 91.0518 95.9755 90.4998L96.6354 89.5091ZM101.66 163.586C100.895 164.261 100.108 164.911 99.299 165.535L98.5714 164.593C99.3595 163.985 100.127 163.351 100.873 162.693L101.66 163.586ZM105.977 159.247C105.306 160.016 104.609 160.763 103.889 161.487L103.045 160.647C103.747 159.942 104.426 159.214 105.081 158.464L105.977 159.247ZM101.498 93.2267C102.267 93.8982 103.014 94.5946 103.737 95.3147L102.898 96.1584C102.192 95.4565 101.464 94.7777 100.715 94.1232L101.498 93.2267ZM109.695 154.385C109.128 155.235 108.535 156.066 107.915 156.876L106.97 156.153C107.574 155.364 108.152 154.554 108.704 153.725L109.695 154.385ZM105.837 97.5439C106.511 98.3089 107.162 99.0963 107.786 99.9049L106.844 100.632C106.235 99.8443 105.602 99.0769 104.944 98.3313L105.837 97.5439ZM112.748 149.079C112.297 149.997 111.817 150.899 111.308 151.782L110.277 151.188C110.772 150.327 111.24 149.449 111.68 148.554L112.748 149.079ZM109.578 102.388C110.147 103.234 110.689 104.1 111.203 104.984L110.174 105.582C109.673 104.72 109.145 103.877 108.59 103.053L109.578 102.388ZM115.081 143.42C114.754 144.39 114.395 145.347 114.007 146.288L112.907 145.835C113.285 144.917 113.634 143.985 113.953 143.04L115.081 143.42ZM112.655 107.68C113.108 108.592 113.532 109.521 113.926 110.466L112.828 110.924C112.444 110.003 112.03 109.098 111.589 108.209L112.655 107.68ZM116.649 137.504C116.453 138.51 116.223 139.505 115.963 140.487L114.812 140.182C115.066 139.225 115.289 138.255 115.481 137.275L116.649 137.504ZM115.011 113.33C115.34 114.292 115.638 115.268 115.905 116.258L114.756 116.568C114.496 115.603 114.205 114.652 113.885 113.715L115.011 113.33ZM117.428 131.431C117.364 132.456 117.267 133.473 117.138 134.48L115.958 134.329C116.084 133.347 116.178 132.356 116.24 131.357L117.428 131.431ZM116.604 119.24C116.804 120.236 116.971 121.243 117.107 122.262L115.927 122.418C115.795 121.426 115.631 120.444 115.437 119.474L116.604 119.24ZM117.489 126.838C117.507 127.351 117.517 127.863 117.518 128.372L116.328 128.376C116.327 127.879 116.317 127.38 116.3 126.88C116.282 126.38 116.257 125.882 116.223 125.386L117.411 125.306C117.445 125.815 117.471 126.325 117.489 126.838Z" fill="#333333"/>
<path d="M109.923 103.885C109.923 103.885 105.952 106.849 105.686 109.012C105.421 111.175 106.545 110.647 107.344 109.882C108.144 109.117 108.112 108.094 108.534 106.577C108.826 105.602 109.297 104.689 109.923 103.885V103.885Z" fill="#B2E672"/>
<path d="M38.1768 162.611C38.1768 162.611 42.1481 159.647 42.4134 157.484C42.6788 155.321 41.5551 155.849 40.7556 156.614C39.9561 157.379 39.9876 158.403 39.5659 159.919C39.2736 160.895 38.8025 161.808 38.1768 162.611V162.611Z" fill="#B2E672"/>
<path d="M40.9668 92.5781C40.9668 92.5781 39.6229 87.8084 37.6986 86.7855C35.7742 85.7626 35.8647 87.0009 36.2921 88.0214C36.7195 89.0418 37.6866 89.3793 38.9509 90.3163C39.7572 90.9389 40.4408 91.7058 40.9668 92.5781V92.5781Z" fill="#B2E672"/>
<path d="M107.116 157.084C107.116 157.084 103.567 153.625 101.389 153.702C99.2113 153.778 99.9089 154.805 100.789 155.475C101.67 156.145 102.676 155.954 104.239 156.133C105.249 156.269 106.224 156.592 107.116 157.084V157.084Z" fill="#B2E672"/>
<path d="M108.511 102.206C108.511 102.206 110.739 97.7787 112.823 97.1409C114.907 96.5031 114.583 97.7017 113.969 98.6222C113.355 99.5427 112.341 99.6899 110.92 100.369C110.01 100.827 109.193 101.45 108.511 102.206V102.206Z" fill="#B2E672"/>
<path d="M39.5887 164.29C39.5887 164.29 37.3607 168.717 35.2765 169.355C33.1923 169.993 33.5171 168.794 34.131 167.874C34.745 166.953 35.7588 166.806 37.1792 166.127C38.0892 165.669 38.9062 165.046 39.5887 164.29V164.29Z" fill="#B2E672"/>
<path d="M106.039 158.876C106.039 158.876 110.466 161.104 111.104 163.188C111.742 165.273 110.543 164.948 109.623 164.334C108.702 163.72 108.555 162.706 107.876 161.286C107.418 160.376 106.795 159.559 106.039 158.876V158.876Z" fill="#B2E672"/>
<path d="M41.2512 92.4601C41.2512 92.4601 45.6783 94.6881 46.3161 96.7723C46.954 98.8565 45.7553 98.5318 44.8348 97.9178C43.9143 97.3038 43.7672 96.29 43.0879 94.8696C42.6302 93.9596 42.0074 93.1426 41.2512 92.4601V92.4601Z" fill="#B2E672"/>
<path fill-rule="evenodd" clip-rule="evenodd" d="M191.89 19.7046C190.924 19.6855 189.927 19.6737 188.903 19.6692L188.909 18.4785C189.938 18.483 190.941 18.4949 191.914 18.5142L191.89 19.7046ZM185.923 19.6761C184.948 19.6846 183.952 19.6991 182.936 19.7195L182.912 18.529C183.932 18.5085 184.933 18.494 185.912 18.4855L185.923 19.6761ZM197.859 19.9411C196.911 19.8813 195.917 19.8313 194.881 19.7912L194.927 18.6013C195.972 18.6418 196.975 18.6923 197.934 18.7527L197.859 19.9411ZM179.943 19.7954C178.957 19.8253 177.957 19.8605 176.942 19.9008L176.894 18.711C177.913 18.6705 178.917 18.6353 179.907 18.6052L179.943 19.7954ZM173.95 20.0327C172.967 20.0803 171.972 20.1324 170.968 20.1891L170.901 19.0003C171.909 18.9434 172.906 18.8911 173.892 18.8434L173.95 20.0327ZM203.801 20.5365C202.898 20.4003 201.906 20.2801 200.832 20.1758L200.947 18.9907C202.038 19.0966 203.051 19.2193 203.978 19.3591L203.801 20.5365ZM167.976 20.3697C166.985 20.4333 165.985 20.5011 164.978 20.5732L164.893 19.3855C165.903 19.3132 166.906 19.2452 167.9 19.1814L167.976 20.3697ZM162.001 20.797C161.012 20.8749 160.016 20.9568 159.016 21.0426L158.914 19.8562C159.917 19.7702 160.916 19.6881 161.908 19.61L162.001 20.797ZM208.019 21.5173C207.627 21.3692 207.17 21.2281 206.651 21.0948L206.947 19.9414C207.498 20.0829 207.997 20.2365 208.439 20.4032L208.229 20.9598L208.439 20.4032C208.964 20.6013 209.457 20.8036 209.918 21.0103L209.431 22.0969C208.994 21.9009 208.523 21.7077 208.019 21.5173ZM208.229 20.9602L208.019 21.5173L208.229 20.9602C154.046 21.4963 155.038 21.401 156.026 21.3093L153.05 21.5955C154.925 20.2156 153.93 20.3112 152.932 20.4106L155.916 20.1237M150.07 21.9024C149.079 22.008 148.085 22.1172 147.09 22.23L146.956 21.0469C147.954 20.9337 148.95 20.8242 149.944 20.7184L150.07 21.9024ZM144.118 22.5775C143.127 22.6969 142.135 22.8198 141.145 22.9462L140.994 21.7651C141.987 21.6383 142.982 21.515 143.975 21.3953L144.118 22.5775ZM138.176 23.336C137.185 23.4698 136.196 23.6071 135.208 23.748L135.04 22.5692C136.03 22.4279 137.023 22.2902 138.017 22.156L138.176 23.336ZM213.878 25.5361C213.51 24.8556 212.906 24.1848 211.994 23.5283L212.689 22.5618C213.709 23.2958 214.452 24.0942 214.926 24.9697L213.878 25.5361ZM132.245 24.1824C131.256 24.3313 130.271 24.4837 129.289 24.6397L129.102 23.4637C130.087 23.3072 131.076 23.1543 132.068 23.0049L132.245 24.1824ZM126.329 25.1228C125.341 25.2885 124.357 25.4579 123.38 25.6308L123.172 24.4583C124.153 24.2847 125.14 24.1148 126.132 23.9485L126.329 25.1228ZM120.44 26.1654C119.45 26.3504 118.467 26.5391 117.493 26.7315L117.262 25.5634C118.241 25.3701 119.227 25.1806 120.221 24.9949L120.44 26.1654ZM114.561 27.3275C113.579 27.5327 112.608 27.7418 111.647 27.9548L111.389 26.7923C112.355 26.5783 113.331 26.3681 114.317 26.162L114.561 27.3275ZM108.72 28.6239C107.737 28.8559 106.766 29.0921 105.811 29.3325L105.52 28.1777C106.482 27.9358 107.458 27.6983 108.447 27.465L108.72 28.6239ZM213.382 30.8255C213.881 29.8457 214.195 28.9491 214.309 28.1246L215.489 28.2876C215.351 29.2849 214.979 30.3116 214.444 31.3653L213.382 30.8255ZM102.922 30.0839C101.949 30.3458 100.994 30.6123 100.058 30.8833L99.7266 29.7396C100.67 29.4663 101.633 29.1978 102.613 28.9341L102.922 30.0839ZM97.1872 31.7477C96.2146 32.0525 95.2664 32.3627 94.3444 32.678L93.959 31.5514C94.8914 31.2325 95.8494 30.9192 96.8311 30.6115L97.1872 31.7477ZM91.536 33.6859C91.0728 33.8606 90.6178 34.0367 90.1711 34.2143C89.6757 34.4112 89.1945 34.6179 88.7271 34.8337L88.228 33.7526C88.7151 33.5277 89.2161 33.3126 89.7313 33.1078C90.1847 32.9275 90.6463 32.7488 91.1158 32.5718L91.536 33.6859ZM210.019 35.7781C210.684 34.939 211.292 34.1349 211.83 33.3629L212.807 34.0434C212.251 34.8416 211.627 35.6663 210.952 36.5178L210.019 35.7781ZM85.9832 36.2954C85.072 36.8518 84.2237 37.4476 83.4342 38.0767L82.6921 37.1455C83.5204 36.4856 84.4092 35.8614 85.3627 35.2792L85.9832 36.2954ZM206.281 40.2774C206.901 39.5462 207.503 38.8364 208.081 38.1457L208.994 38.9101C208.413 39.6047 207.808 40.3183 207.187 41.0498L207.023 41.2436L206.115 40.4735L206.281 40.2774ZM81.1346 40.1635C80.4016 40.9201 79.7324 41.7099 79.1216 42.5253L78.1686 41.8115C78.8085 40.9572 79.5102 40.129 80.2794 39.3349L81.1346 40.1635ZM202.181 45.1962C202.837 44.3828 203.491 43.5907 204.136 42.8196L205.049 43.5832C204.408 44.3507 203.758 45.1373 203.107 45.944L202.181 45.1962ZM77.4104 45.1254C76.8855 46.0362 76.4198 46.9674 76.0068 47.9102L74.9161 47.4325C75.3455 46.4523 75.8307 45.4818 76.3787 44.5309L77.4104 45.1254ZM198.447 50.086C199.051 49.2408 199.664 48.4158 200.281 47.6104L201.226 48.3343C200.616 49.1305 200.011 49.9449 199.416 50.7781L198.447 50.086ZM74.898 50.8323C74.5703 51.8397 74.2943 52.8495 74.0624 53.8511L72.9024 53.5826C73.1414 52.55 73.4265 51.5068 73.7657 50.4639L74.898 50.8323ZM195.069 55.2561C195.597 54.3617 196.143 53.4872 196.703 52.6321L197.699 53.2846C197.148 54.1252 196.612 54.9837 196.095 55.8607L195.069 55.2561ZM73.4748 56.9347C73.3123 58.0048 73.1941 59.051 73.1103 60.0592L71.9237 59.9607C72.0095 58.9282 72.1307 57.8551 72.2976 56.7559L73.4748 56.9347ZM192.226 60.7534C192.648 59.8036 193.097 58.8737 193.569 57.9633L194.626 58.5114C194.165 59.4017 193.726 60.3098 193.315 61.2364L192.226 60.7534ZM72.9462 63.2046C72.9204 64.3517 72.9321 65.4125 72.9612 66.3587L71.771 66.3953C71.7414 65.4317 71.7294 64.3494 71.7558 63.1777L72.9462 63.2046ZM190.103 66.5761C190.389 65.5732 190.711 64.59 191.064 63.6262L192.182 64.0352C191.839 64.9731 191.526 65.9289 191.248 66.903L190.103 66.5761ZM72.0493 71.3823C72.0172 71.342 71.9922 71.3025 71.9738 71.2711L73.0013 70.6695L73.0003 70.6677L72.9969 70.6625C72.994 70.6582 72.9884 70.65 72.98 70.6395C72.969 70.6257 72.9259 70.5725 72.848 70.5248C72.7628 70.4728 72.5845 70.3999 72.3693 70.4711C72.1735 70.5358 72.0813 70.6775 72.0508 70.7324C72.016 70.7949 72.0027 70.8499 71.9986 70.8731C71.9996 70.8613 72.0011 70.8345 72.0013 70.7872C72.0022 70.569 71.9764 70.176 71.9375 69.5938L73.1255 69.5145L73.1277 69.5476C73.1639 70.0892 73.1931 70.5254 73.192 70.7918C73.1918 70.8619 73.1895 70.9352 73.1822 71.0034L73.182 71.0049C73.1773 71.0489 73.163 71.1824 73.0913 71.3112C73.0521 71.3817 72.9501 71.5332 72.7431 71.6016C72.5167 71.6764 72.3259 71.6013 72.2269 71.5408C72.1352 71.4847 72.0769 71.4169 72.0493 71.3823ZM71.9982 70.8764C71.9968 70.8894 71.9961 70.8867 71.9986 70.8731C71.9985 70.8744 71.9983 70.8755 71.9982 70.8764ZM188.866 72.6578C188.993 71.6171 189.161 70.5952 189.365 69.5919L190.532 69.8299C190.333 70.8029 190.171 71.7935 190.048 72.8021L188.866 72.6578ZM188.582 77.3204C188.582 76.794 188.593 76.272 188.614 75.7543L189.804 75.8027C189.783 76.3043 189.773 76.8102 189.773 77.3204C189.773 77.8191 189.776 78.3128 189.783 78.8018L188.592 78.818C188.586 78.3236 188.582 77.8244 188.582 77.3204ZM188.842 84.7443C188.773 83.7761 188.716 82.7893 188.674 81.7825L189.864 81.7327C189.906 82.7278 189.961 83.7028 190.03 84.659L188.842 84.7443ZM304.701 84.8379C304.931 85.0676 305.261 85.5009 305.653 86.0806L304.666 86.747C304.278 86.1722 304.001 85.8222 303.859 85.6799L304.701 84.8379ZM189.453 90.6452C189.322 89.6824 189.204 88.7012 189.101 87.6998L190.285 87.5774C190.387 88.566 190.504 89.5344 190.633 90.4845L189.453 90.6452ZM307.224 88.6491C307.663 89.4259 308.136 90.3077 308.626 91.2841L307.562 91.8186C307.081 90.8594 306.617 89.9948 306.187 89.2352L307.224 88.6491ZM190.449 96.4949C190.254 95.54 190.071 94.5677 189.902 93.5761L191.076 93.3763C191.242 94.3546 191.423 95.3138 191.616 96.256L190.449 96.4949ZM309.91 93.9819C310.298 94.8435 310.689 95.7551 311.075 96.7122L309.971 97.1577C309.591 96.2158 309.207 95.3187 308.825 94.4711L309.91 93.9819ZM191.831 102.272C191.574 101.329 191.327 100.371 191.094 99.3965L192.252 99.1193C192.482 100.081 192.725 101.027 192.98 101.958L191.831 102.272ZM312.137 99.5028C312.463 100.413 312.78 101.354 313.084 102.324L311.948 102.68C311.649 101.726 311.337 100.799 311.016 99.9042L312.137 99.5028ZM193.557 107.944C193.247 107.014 192.945 106.073 192.654 105.119L193.793 104.772C194.081 105.715 194.379 106.646 194.686 107.568L193.557 107.944ZM313.915 105.183C314.168 106.127 314.406 107.094 314.625 108.08L313.463 108.338C313.248 107.369 313.014 106.42 312.765 105.491L313.915 105.183ZM195.55 113.52C195.202 112.601 194.861 111.677 194.527 110.744L195.647 110.343C195.979 111.268 196.318 112.186 196.663 113.099L195.55 113.52ZM315.206 111.008C315.375 111.976 315.524 112.96 315.649 113.957L314.467 114.105C314.345 113.128 314.199 112.163 314.033 111.213L315.206 111.008ZM197.699 119.025C197.334 118.111 196.971 117.196 196.612 116.279L197.721 115.845C198.079 116.759 198.441 117.671 198.805 118.584L197.699 119.025ZM315.945 116.925C316.018 117.909 316.066 118.904 316.086 119.907L314.896 119.931C314.876 118.95 314.829 117.977 314.758 117.013L315.945 116.925ZM199.879 124.503C199.518 123.585 199.156 122.674 198.793 121.765L199.899 121.324C200.262 122.233 200.625 123.147 200.987 124.067L199.879 124.503ZM316.062 122.895C316.025 123.883 315.96 124.878 315.863 125.878L314.678 125.763C314.773 124.788 314.836 123.817 314.872 122.851L316.062 122.895ZM201.972 130.004C201.633 129.075 201.29 128.157 200.943 127.247L202.056 126.823C202.404 127.737 202.75 128.661 203.091 129.597L201.972 130.004ZM315.483 128.845C315.326 129.822 315.137 130.802 314.914 131.783L313.753 131.519C313.971 130.564 314.155 129.609 314.307 128.657L315.483 128.845ZM203.872 135.559C203.572 134.615 203.264 133.687 202.951 132.771L204.077 132.385C204.393 133.308 204.704 134.245 205.007 135.198L203.872 135.559ZM314.153 134.679C313.869 135.626 313.552 136.572 313.197 137.517L312.083 137.099C312.427 136.18 312.736 135.259 313.012 134.337L314.153 134.679ZM205.512 141.197C205.26 140.237 204.998 139.295 204.729 138.369L205.872 138.036C206.144 138.972 206.409 139.924 206.664 140.895L205.512 141.197ZM312.051 140.283C311.643 141.179 311.199 142.073 310.719 142.963L309.671 142.397C310.139 141.531 310.57 140.662 310.967 139.789L312.051 140.283ZM206.846 146.903C206.647 145.93 206.437 144.976 206.218 144.04L207.378 143.769C207.599 144.716 207.811 145.68 208.013 146.664L206.846 146.903ZM309.21 145.546C308.687 146.377 308.129 147.203 307.535 148.022L306.571 147.324C307.15 146.525 307.693 145.72 308.202 144.911L309.21 145.546ZM207.641 151.24C207.562 150.749 207.48 150.264 207.395 149.783L208.568 149.576C208.653 150.062 208.736 150.554 208.817 151.049C208.898 151.553 208.97 152.052 209.033 152.547L207.852 152.696C207.791 152.215 207.721 151.73 207.641 151.24ZM305.707 150.386C305.389 150.771 305.063 151.155 304.728 151.537C304.398 151.913 304.064 152.287 303.725 152.659L302.845 151.858C303.178 151.491 303.508 151.123 303.832 150.752C304.159 150.379 304.478 150.005 304.788 149.628L305.707 150.386ZM301.652 154.855C300.952 155.571 300.236 156.278 299.505 156.978L298.682 156.117C299.403 155.427 300.11 154.729 300.801 154.022L301.652 154.855ZM208.172 158.503C208.187 157.553 208.17 156.584 208.115 155.595L209.304 155.529C209.361 156.547 209.378 157.545 209.362 158.523L208.172 158.503ZM297.29 159.029C296.546 159.697 295.789 160.357 295.019 161.009L294.25 160.1C295.011 159.456 295.76 158.803 296.495 158.143L297.29 159.029ZM207.657 164.302C207.808 163.358 207.931 162.393 208.018 161.405L209.204 161.51C209.114 162.527 208.988 163.521 208.833 164.491L207.657 164.302ZM292.692 162.923C291.911 163.548 291.118 164.165 290.315 164.774L289.596 163.825C290.391 163.222 291.175 162.612 291.949 161.993L292.692 162.923ZM287.891 166.564C287.078 167.149 286.256 167.726 285.425 168.295L284.752 167.313C285.576 166.749 286.39 166.177 287.196 165.598L287.891 166.564ZM206.353 169.981C206.625 169.068 206.875 168.129 207.097 167.165L208.257 167.432C208.029 168.422 207.773 169.385 207.494 170.32L206.353 169.981ZM282.921 169.969C282.082 170.516 281.236 171.055 280.383 171.586L279.754 170.575C280.6 170.048 281.439 169.514 282.27 168.972L282.921 169.969ZM277.811 173.15C276.949 173.662 276.081 174.166 275.208 174.662L274.62 173.626C275.487 173.134 276.348 172.634 277.203 172.126L277.811 173.15ZM204.378 175.487C204.744 174.608 205.1 173.699 205.438 172.76L206.559 173.164C206.213 174.123 205.85 175.05 205.477 175.945L204.378 175.487ZM272.577 176.123C271.696 176.601 270.81 177.072 269.92 177.534L269.371 176.477C270.254 176.019 271.134 175.552 272.009 175.076L272.577 176.123ZM267.238 178.897C266.338 179.344 265.436 179.782 264.531 180.212L264.02 179.137C264.918 178.71 265.815 178.274 266.708 177.831L267.238 178.897ZM201.927 180.817C202.343 179.974 202.77 179.092 203.195 178.173L204.276 178.673C203.845 179.605 203.414 180.495 202.995 181.344L201.927 180.817ZM261.803 181.48C260.888 181.896 259.971 182.303 259.054 182.701L258.58 181.609C259.491 181.214 260.401 180.809 261.31 180.396L261.803 181.48ZM256.287 183.876C255.357 184.261 254.428 184.638 253.499 185.005L253.061 183.898C253.984 183.533 254.907 183.159 255.831 182.776L256.287 183.876ZM199.316 186.149C199.693 185.312 200.132 184.416 200.605 183.466L201.671 183.997C201.199 184.945 200.769 185.824 200.401 186.639L199.316 186.149ZM250.691 186.088C249.747 186.443 248.805 186.789 247.865 187.125L247.465 186.004C248.398 185.67 249.334 185.327 250.271 184.974L250.691 186.088ZM245.024 188.114C244.068 188.438 243.116 188.751 242.168 189.054L241.806 187.92C242.747 187.619 243.693 187.308 244.643 186.986L245.024 188.114ZM239.297 189.945C238.329 190.236 237.367 190.516 236.412 190.784L236.09 189.638C237.038 189.372 237.993 189.094 238.954 188.805L239.297 189.945ZM198.192 192.276C197.811 191.307 197.904 190.191 198.232 189.004L199.38 189.32C199.079 190.41 199.058 191.224 199.3 191.84L198.192 192.276ZM233.506 191.572C232.523 191.829 231.549 192.073 230.584 192.305L230.306 191.147C231.263 190.917 232.23 190.675 233.205 190.42L233.506 191.572ZM227.648 192.977C226.652 193.194 225.668 193.397 224.698 193.586L224.471 192.417C225.432 192.23 226.407 192.029 227.395 191.814L227.648 192.977ZM221.734 194.124C220.724 194.295 219.731 194.448 218.757 194.585L218.592 193.406C219.554 193.271 220.536 193.119 221.536 192.95L221.734 194.124ZM203.701 195.166C202.496 195.015 201.498 194.789 200.689 194.477L201.118 193.367C201.806 193.632 202.702 193.841 203.849 193.984L203.701 195.166ZM215.768 194.958C214.739 195.07 213.734 195.16 212.757 195.23L212.673 194.042C213.634 193.974 214.624 193.884 215.64 193.774L215.768 194.958ZM208.229 195.4C207.696 195.4 207.187 195.393 206.703 195.379L206.738 194.189C207.209 194.202 207.706 194.209 208.229 194.209C208.708 194.209 209.198 194.203 209.696 194.19L209.728 195.38C209.219 195.393 208.719 195.4 208.229 195.4Z" fill="#B2E672"/>
<path fill-rule="evenodd" clip-rule="evenodd" d="M202.156 21.524C202.01 21.745 201.793 22.0676 201.51 22.4764L200.531 21.7988C200.809 21.397 201.021 21.0811 201.164 20.8664C201.235 20.759 201.288 20.677 201.324 20.6221C201.342 20.5946 201.355 20.574 201.364 20.5604L201.374 20.5453L201.376 20.5418L201.376 20.541L202.381 21.1805L202.38 21.181L202.38 21.1823L202.377 21.1869L202.366 21.2042C202.356 21.2193 202.342 21.2414 202.323 21.2704C202.285 21.3283 202.23 21.4134 202.156 21.524ZM199.695 24.993C199.138 25.7366 198.501 26.5635 197.79 27.45L196.861 26.7051C197.563 25.8296 198.192 25.0131 198.742 24.2791L199.695 24.993ZM195.805 29.8442C195.158 30.5995 194.469 31.3786 193.742 32.1703L192.865 31.3649C193.582 30.5838 194.262 29.8149 194.901 29.0693L195.805 29.8442ZM191.594 34.4249C190.878 35.1492 190.133 35.8755 189.361 36.5955L188.549 35.7248C189.308 35.0164 190.042 34.3014 190.748 33.5877L191.594 34.4249ZM187.038 38.6687C186.251 39.3385 185.442 39.9955 184.612 40.6325L183.887 39.688C184.7 39.0641 185.493 38.4199 186.265 37.7623L187.038 38.6687ZM182.082 42.4627C181.219 43.0487 180.337 43.6081 179.438 44.134L178.837 43.106C179.711 42.5947 180.571 42.0496 181.414 41.4776L182.082 42.4627ZM176.673 45.6115C175.726 46.0695 174.763 46.4856 173.786 46.8523L173.368 45.7374C174.309 45.3845 175.238 44.9829 176.155 44.5396L176.673 45.6115ZM170.784 47.8035C169.762 48.0668 168.728 48.2709 167.683 48.4077L167.528 47.2271C168.523 47.097 169.509 46.9024 170.487 46.6505L170.784 47.8035ZM162.936 48.5431C162.448 48.5055 161.97 48.5128 161.502 48.5619L161.378 47.3777C161.918 47.3211 162.468 47.3128 163.028 47.3559C163.53 47.3945 164.031 47.4147 164.53 47.4174L164.523 48.6081C163.996 48.6052 163.467 48.5839 162.936 48.5431ZM158.773 49.3567C157.934 49.7653 157.131 50.3167 156.371 50.9945L155.579 50.1057C156.41 49.3647 157.303 48.7485 158.252 48.2862L158.773 49.3567ZM154.391 53.1677C153.814 53.9338 153.275 54.778 152.779 55.6871L151.734 55.117C152.254 54.1619 152.824 53.268 153.441 52.4508L154.391 53.1677ZM151.502 58.4047C151.135 59.3162 150.806 60.268 150.519 61.2499L149.376 60.9157C149.674 59.898 150.015 58.9091 150.398 57.9597L151.502 58.4047ZM149.803 64.1841C149.609 65.1656 149.456 66.1648 149.345 67.1726L148.161 67.0425C148.276 66.0009 148.435 64.9682 148.635 63.9533L149.803 64.1841ZM149.144 70.1879C149.12 71.1972 149.141 72.2058 149.209 73.2048L148.021 73.2851C147.951 72.2489 147.929 71.2043 147.953 70.1601L149.144 70.1879ZM221.743 71.3911C222.791 71.3883 223.819 71.4314 224.828 71.5177L224.726 72.7041C223.752 72.6207 222.759 72.5791 221.746 72.5818L221.743 71.3911ZM215.574 71.9215C216.612 71.7483 217.635 71.6189 218.642 71.5313L218.745 72.7175C217.77 72.8024 216.778 72.9278 215.77 73.096L215.574 71.9215ZM227.886 71.9201C228.921 72.1049 229.933 72.336 230.921 72.6101L230.602 73.7574C229.65 73.4932 228.675 73.2705 227.677 73.0923L227.886 71.9201ZM209.571 73.3729C210.584 73.0539 211.584 72.7756 212.571 72.5366L212.851 73.6938C211.89 73.9264 210.916 74.1974 209.929 74.5085L209.571 73.3729ZM233.867 73.5787C234.84 73.95 235.786 74.3637 236.706 74.8162L236.18 75.8846C235.293 75.448 234.38 75.0491 233.442 74.6912L233.867 73.5787ZM203.842 75.5638C204.801 75.1333 205.751 74.7387 206.69 74.3788L207.116 75.4907C206.198 75.8424 205.269 76.2285 204.329 76.6502L203.842 75.5638ZM149.559 76.1992C149.728 77.1997 149.948 78.18 150.223 79.1309L149.079 79.461C148.791 78.4642 148.561 77.4397 148.385 76.3975L149.559 76.1992ZM239.418 76.3074C240.304 76.8475 241.161 77.4243 241.988 78.0337L241.282 78.9923C240.482 78.403 239.654 77.8456 238.799 77.324L239.418 76.3074ZM198.376 78.3532C199.283 77.8354 200.181 77.3492 201.072 76.8938L201.614 77.954C200.74 78.4008 199.858 78.8782 198.967 79.3872L198.376 78.3532ZM194.407 80.792C194.854 80.4985 195.298 80.2126 195.741 79.9342L196.375 80.9423C195.939 81.2163 195.501 81.4978 195.061 81.787C194.609 82.0845 194.16 82.3754 193.715 82.6597L193.074 81.6562C193.515 81.3748 193.959 81.0868 194.407 80.792ZM244.402 79.9746C245.181 80.6566 245.93 81.3681 246.646 82.105L245.793 82.9351C245.098 82.2206 244.373 81.5311 243.618 80.8706L244.402 79.9746ZM151.235 81.9459C151.64 82.8676 152.105 83.7458 152.634 84.5704L151.631 85.2127C151.067 84.3322 150.573 83.3988 150.145 82.4244L151.235 81.9459ZM187.836 84.7957C188.7 84.3139 189.58 83.8042 190.477 83.2657L191.09 84.2866C190.182 84.8313 189.291 85.3474 188.417 85.8355L187.836 84.7957ZM248.714 84.4041C249.376 85.1996 250.005 86.0171 250.6 86.8521L249.631 87.5431C249.053 86.7319 248.442 85.938 247.799 85.1657L248.714 84.4041ZM182.4 87.5703C183.299 87.1569 184.22 86.7097 185.162 86.2275L185.704 87.2874C184.748 87.7769 183.812 88.2315 182.897 88.6522L182.4 87.5703ZM154.445 86.9103C155.113 87.6259 155.85 88.2765 156.657 88.8515L155.967 89.8214C155.092 89.1984 154.296 88.4949 153.575 87.7234L154.445 86.9103ZM176.774 89.8199C177.707 89.5067 178.668 89.1519 179.658 88.7537L180.102 89.8583C179.093 90.2648 178.11 90.6277 177.153 90.9488L176.774 89.8199ZM252.299 89.4308C252.837 90.3161 253.339 91.2154 253.804 92.124L252.744 92.6668C252.292 91.7836 251.804 90.9095 251.281 90.049L252.299 89.4308ZM159.215 90.305C160.086 90.6894 161.021 91.0027 162.023 91.2357L161.753 92.3955C160.68 92.1461 159.675 91.8095 158.734 91.3943L159.215 90.305ZM170.926 91.32C171.869 91.1602 172.848 90.9504 173.863 90.6875L174.162 91.8402C173.115 92.1112 172.103 92.3282 171.125 92.494L170.926 91.32ZM164.968 91.6682C165.913 91.7328 166.908 91.7352 167.954 91.6697L168.029 92.8581C166.934 92.9267 165.887 92.9245 164.887 92.8561L164.968 91.6682ZM255.112 94.927C255.519 95.8882 255.884 96.8545 256.209 97.821L255.08 98.2C254.765 97.2624 254.41 96.3242 254.016 95.3905L255.112 94.927ZM257.077 100.794C257.331 101.814 257.537 102.829 257.695 103.832L256.519 104.017C256.366 103.049 256.167 102.068 255.922 101.081L257.077 100.794ZM258.029 106.919C258.09 107.981 258.091 109.022 258.032 110.033L256.843 109.964C256.9 109.001 256.898 108.006 256.84 106.987L258.029 106.919ZM257.639 113.133C257.426 114.188 257.134 115.197 256.76 116.148L255.652 115.712C255.998 114.832 256.271 113.891 256.471 112.898L257.639 113.133ZM214.304 119.071C213.277 119.025 212.27 119.004 211.28 119.004L211.28 117.814C212.287 117.813 213.312 117.835 214.356 117.881L214.304 119.071ZM208.258 119.076C207.234 119.125 206.23 119.198 205.244 119.294L205.129 118.109C206.134 118.011 207.158 117.937 208.202 117.887L208.258 119.076ZM220.333 119.584C219.312 119.457 218.309 119.351 217.323 119.267L217.424 118.08C218.426 118.166 219.445 118.273 220.481 118.403L220.333 119.584ZM255.29 118.96C254.687 119.848 253.982 120.65 253.173 121.347L252.396 120.446C253.121 119.82 253.757 119.098 254.305 118.291L255.29 118.96ZM202.247 119.663C201.237 119.813 200.247 119.989 199.275 120.187L199.038 119.02C200.029 118.818 201.04 118.639 202.071 118.485L202.247 119.663ZM226.32 120.55C225.309 120.351 224.313 120.173 223.333 120.015L223.523 118.839C224.516 119 225.525 119.181 226.55 119.382L226.32 120.55ZM196.337 120.867C195.351 121.123 194.384 121.403 193.435 121.704L193.075 120.569C194.043 120.262 195.03 119.976 196.037 119.714L196.337 120.867ZM232.239 121.903C231.244 121.644 230.263 121.405 229.297 121.184L229.562 120.023C230.54 120.247 231.532 120.489 232.538 120.75L232.239 121.903ZM236.634 123.137C236.138 122.988 235.646 122.842 235.157 122.702L235.486 121.557C235.98 121.7 236.478 121.846 236.979 121.997C237.49 122.152 237.99 122.29 238.48 122.413L238.19 123.568C237.682 123.44 237.163 123.297 236.634 123.137ZM190.579 122.693C189.627 123.05 188.694 123.428 187.777 123.826L187.304 122.733C188.238 122.328 189.19 121.943 190.16 121.578L190.579 122.693ZM250.494 123.082C249.568 123.516 248.559 123.848 247.466 124.067L247.232 122.899C248.236 122.698 249.153 122.396 249.988 122.004L250.494 123.082ZM244.325 124.375C243.342 124.382 242.306 124.313 241.218 124.163L241.381 122.983C242.417 123.126 243.395 123.191 244.317 123.185L244.325 124.375ZM185.033 125.092C184.122 125.538 183.226 126.002 182.345 126.481L181.776 125.435C182.672 124.948 183.582 124.477 184.51 124.022L185.033 125.092ZM179.711 127.98C178.839 128.498 177.98 129.029 177.131 129.571L176.49 128.568C177.348 128.02 178.219 127.481 179.103 126.956L179.711 127.98ZM174.597 131.242C173.756 131.812 172.924 132.391 172.1 132.975L171.411 132.004C172.241 131.416 173.079 130.832 173.929 130.256L174.597 131.242ZM169.632 134.755C168.81 135.357 167.994 135.961 167.181 136.566L166.47 135.611C167.284 135.005 168.103 134.398 168.929 133.794L169.632 134.755ZM164.736 138.391C163.917 139.002 163.1 139.611 162.284 140.213L161.577 139.255C162.391 138.654 163.205 138.048 164.023 137.437L164.736 138.391ZM159.809 142.014C159.394 142.312 158.978 142.608 158.561 142.9C158.172 143.174 157.795 143.449 157.431 143.728L156.709 142.781C157.086 142.493 157.475 142.208 157.877 141.926C158.29 141.636 158.703 141.342 159.116 141.047L159.809 142.014ZM155.286 145.511C154.575 146.158 153.923 146.814 153.324 147.479L152.439 146.682C153.065 145.987 153.746 145.303 154.484 144.631L155.286 145.511ZM151.586 149.637C151.034 150.409 150.546 151.19 150.118 151.978L149.072 151.409C149.524 150.578 150.038 149.755 150.618 148.944L151.586 149.637ZM148.96 154.481C148.623 155.354 148.351 156.234 148.138 157.116L146.981 156.836C147.206 155.905 147.493 154.975 147.849 154.052L148.96 154.481ZM147.661 159.837C147.558 160.759 147.512 161.682 147.516 162.602L146.326 162.607C146.321 161.644 146.369 160.675 146.478 159.705L147.661 159.837ZM147.678 165.373C147.779 166.298 147.926 167.216 148.111 168.123L146.944 168.361C146.752 167.42 146.6 166.466 146.494 165.503L147.678 165.373ZM148.781 170.833C149.042 171.735 149.336 172.622 149.654 173.49L148.537 173.901C148.209 173.008 147.906 172.095 147.637 171.164L148.781 170.833ZM150.704 176.089C150.894 176.52 151.088 176.945 151.285 177.362C151.532 177.878 151.787 178.389 152.049 178.896L150.991 179.443C150.723 178.925 150.463 178.402 150.211 177.876L150.21 177.874C150.008 177.446 149.808 177.011 149.614 176.568L150.704 176.089ZM153.718 181.889C154.305 182.869 154.923 183.83 155.57 184.772L154.589 185.446C153.927 184.485 153.296 183.502 152.696 182.501L153.718 181.889ZM157.598 187.534C157.951 187.983 158.31 188.427 158.676 188.866L157.762 189.629C157.388 189.181 157.021 188.727 156.661 188.268L157.598 187.534Z" fill="#FF4D4D"/>
<path d="M101.058 110.051H45.2033C42.5728 110.051 40.4404 112.183 40.4404 114.814V145.589C40.4404 148.219 42.5728 150.352 45.2033 150.352H101.058C103.688 150.352 105.821 148.219 105.821 145.589V114.814C105.821 112.183 103.688 110.051 101.058 110.051Z" fill="#E6E6E6"/>
<path d="M98.2396 107.232H42.3849C39.7545 107.232 37.6221 109.365 37.6221 111.995V142.771C37.6221 145.401 39.7545 147.533 42.3849 147.533H98.2396C100.87 147.533 103.002 145.401 103.002 142.771V111.995C103.002 109.365 100.87 107.232 98.2396 107.232Z" fill="#FFE36B"/>
<path fill-rule="evenodd" clip-rule="evenodd" d="M60.8948 110.211C61.6407 109.577 62.5654 109.304 63.5863 109.418C65.6224 109.644 66.9252 111.268 67.842 112.861C68.6358 114.24 69.3559 115.992 70.0807 117.755C70.2189 118.092 70.3572 118.428 70.4963 118.763C70.8282 119.561 71.1676 120.355 71.523 121.131C74.8738 120.842 78.7399 120.959 82.2811 121.106C83.3337 121.149 84.323 121.178 85.2538 121.203C85.3563 121.206 85.4581 121.209 85.5594 121.211C86.3736 121.234 87.1461 121.255 87.8648 121.283C88.5492 121.31 89.2053 121.344 89.8249 121.395C90.0297 120.307 90.2362 119.282 90.4572 118.388C90.7165 117.339 91.0235 116.344 91.4277 115.553C91.8054 114.813 92.4439 113.904 93.5405 113.626C94.7922 113.31 95.799 114.036 96.3974 114.667C97.0378 115.341 97.5977 116.286 98.0778 117.331C99.0488 119.446 99.861 122.345 100.309 125.419C100.757 128.495 100.855 131.844 100.329 134.855C99.8076 137.839 98.6345 140.696 96.3539 142.501C92.0877 145.878 86.4678 145.961 80.8278 144.972C76.7154 144.251 72.3153 142.9 68.1026 141.607C66.5405 141.128 65.0042 140.656 63.5179 140.228C58.9729 138.917 56.3504 137.979 54.5939 136.759C53.3718 138.093 52.1716 139.093 50.9755 139.768C48.6525 141.078 46.3872 141.131 44.2556 140.149C41.9211 139.074 40.6767 136.559 40.3003 133.888C39.9163 131.164 40.3672 127.954 41.7464 124.933C42.5471 123.18 43.7605 121.901 45.0902 120.915C44.418 119.119 43.8625 117.279 43.4283 115.405C43.2427 114.604 43.7415 113.805 44.5423 113.619C45.3431 113.434 46.1427 113.932 46.3282 114.733C46.6907 116.298 47.144 117.837 47.6847 119.344C48.0291 119.169 48.369 119.005 48.6993 118.85C49.0915 118.666 49.4634 118.496 49.8176 118.335C50.6393 117.961 51.3653 117.63 52.0256 117.259C52.9571 116.736 53.4815 116.273 53.7393 115.81C53.952 115.427 53.8765 115.317 53.8443 115.27C53.8419 115.267 53.8398 115.264 53.838 115.261C53.7241 115.077 53.4111 114.806 52.8132 114.526C52.2526 114.264 51.615 114.074 51.0926 113.948C50.8368 113.887 50.6203 113.843 50.4703 113.816C50.3956 113.802 50.338 113.793 50.301 113.787C50.2826 113.784 50.2693 113.782 50.2617 113.78L50.2557 113.78C49.4423 113.663 48.8771 112.909 48.9932 112.096C49.1094 111.282 49.8632 110.717 50.677 110.833L50.4667 112.306C50.677 110.833 50.6774 110.833 50.6779 110.833L50.6813 110.833L50.688 110.834L50.7084 110.837C50.7249 110.84 50.7475 110.843 50.7756 110.848C50.8317 110.857 50.9101 110.87 51.0072 110.888C51.2009 110.923 51.4711 110.978 51.788 111.054C52.411 111.203 53.262 111.449 54.075 111.83C54.8507 112.193 55.7962 112.771 56.3671 113.691C57.0259 114.752 57.0335 116.011 56.3407 117.257C55.6775 118.449 54.5666 119.246 53.4837 119.854C52.7071 120.291 51.8015 120.703 50.9291 121.101C50.6002 121.251 50.276 121.398 49.9652 121.544C49.5652 121.732 49.1747 121.923 48.7969 122.121C49.6315 124.003 50.6077 125.823 51.7187 127.565C52.6032 128.931 53.2322 130.06 53.739 130.971C53.8591 131.187 53.9723 131.39 54.0805 131.581C54.2081 131.807 54.3274 132.014 54.4419 132.204C54.7299 131.804 55.0238 131.379 55.3238 130.928C56.3253 129.421 56.9683 127.432 57.4169 125.181C57.8005 123.255 58.023 121.248 58.2387 119.302C58.2748 118.976 58.3108 118.652 58.3472 118.33C58.5924 116.166 58.8698 114.002 59.4654 112.414C59.7672 111.609 60.2042 110.798 60.8948 110.211ZM56.4885 134.448C57.7465 135.262 59.8914 136.084 64.3426 137.368C65.9435 137.829 67.5505 138.322 69.1535 138.814C73.3034 140.088 77.4258 141.353 81.3421 142.04C86.7684 142.992 91.2783 142.722 94.5064 140.167C95.973 139.006 96.9355 136.982 97.3966 134.343C97.8531 131.729 97.7803 128.711 97.3631 125.848C96.9456 122.982 96.1977 120.371 95.3725 118.573C94.9545 117.663 94.5572 117.052 94.2387 116.716C94.2272 116.704 94.2161 116.693 94.2054 116.682C94.1685 116.74 94.126 116.814 94.0786 116.907C93.833 117.388 93.5908 118.116 93.347 119.102C93.1393 119.943 92.9506 120.878 92.7602 121.891C93.6954 122.179 94.5733 122.645 95.2011 123.453C95.9969 124.477 96.1685 125.757 96.019 127.123C95.6954 130.078 93.2134 132.309 90.0906 133.383C89.9413 133.786 89.7834 134.179 89.6162 134.561C88.5556 136.985 86.9953 139.226 84.5395 140.184C82.2411 141.081 79.6235 140.963 77.1224 140.329C74.6055 139.691 72.0719 138.5 69.8368 137.072C67.6034 135.645 65.6039 133.942 64.1802 132.232C63.4684 131.377 62.8732 130.487 62.4726 129.6C62.0763 128.722 61.8298 127.754 61.9433 126.787C62.1536 124.997 63.231 123.733 64.6451 122.897C65.7191 122.262 67.0327 121.839 68.448 121.554C68.2021 120.992 67.9699 120.44 67.7476 119.906C67.5954 119.539 67.4483 119.182 67.305 118.834C66.5768 117.065 65.9481 115.538 65.2619 114.345C64.4123 112.869 63.7623 112.432 63.258 112.376C63.0086 112.349 62.9112 112.404 62.8229 112.479C62.6792 112.601 62.4697 112.88 62.2526 113.459C61.8103 114.639 61.5599 116.416 61.3051 118.665C61.2702 118.973 61.2353 119.288 61.1998 119.609C60.9853 121.548 60.7473 123.699 60.3363 125.762C59.858 128.163 59.1197 130.595 57.8028 132.576C57.3604 133.241 56.9226 133.865 56.4885 134.448ZM69.7734 124.338C68.2073 124.592 66.9921 124.967 66.1606 125.459C65.3263 125.952 64.975 126.494 64.8998 127.134C64.8706 127.383 64.9218 127.79 65.1858 128.375C65.4454 128.95 65.8729 129.612 66.468 130.327C67.6582 131.757 69.4096 133.267 71.4393 134.563C73.4671 135.858 75.7086 136.9 77.8535 137.443C80.0143 137.991 81.9455 138.001 83.4576 137.411C84.6538 136.945 85.6753 135.835 86.549 134.094C83.5583 134.319 80.1416 133.709 76.7136 131.949C73.4981 130.298 71.3627 127.367 69.7734 124.338ZM91.251 129.496C92.3643 128.688 92.9608 127.704 93.0599 126.799C93.1649 125.84 92.9876 125.456 92.8507 125.28C92.7512 125.152 92.5698 125 92.2167 124.854C92.1203 125.374 92.0197 125.906 91.9128 126.449C91.7158 127.451 91.4991 128.477 91.251 129.496ZM89.284 124.339C89.189 124.853 89.092 125.367 88.9921 125.875C88.6477 127.625 88.2603 129.351 87.7772 130.929C85.0981 131.464 81.6558 131.14 78.073 129.301C75.9127 128.192 74.3143 126.282 72.9949 124.011C75.8224 123.855 79.0274 123.95 82.1579 124.08C83.2328 124.124 84.24 124.153 85.1724 124.179C85.2752 124.182 85.3769 124.184 85.4777 124.187C86.2952 124.209 87.0483 124.23 87.7477 124.257C88.3067 124.279 88.8176 124.306 89.284 124.339ZM93.9888 116.504C93.9887 116.503 93.9954 116.505 94.0091 116.514C93.9958 116.509 93.9889 116.505 93.9888 116.504ZM52.484 134.655C52.1231 134.146 51.8072 133.609 51.4891 133.046C51.3695 132.835 51.2484 132.617 51.1231 132.392C50.6181 131.485 50.0443 130.455 49.2176 129.179L49.2119 129.171C48.1076 127.439 47.1275 125.636 46.2773 123.775C45.5174 124.436 44.892 125.211 44.4543 126.17C43.2925 128.714 42.9492 131.353 43.2479 133.472C43.5542 135.645 44.4692 136.97 45.5009 137.445C46.7354 138.014 47.9944 138.031 49.5132 137.175C50.4081 136.67 51.3959 135.858 52.484 134.655Z" fill="white"/>
<path d="M71.8188 90.1336C83.2859 90.1336 92.5819 80.8377 92.5819 69.3705C92.5819 57.9034 83.2859 48.6074 71.8188 48.6074C60.3516 48.6074 51.0557 57.9034 51.0557 69.3705C51.0557 80.8377 60.3516 90.1336 71.8188 90.1336Z" fill="url(#paint0_linear)"/>
<path d="M69.4902 78.6039L72.5664 97.4053H81.457L77.3549 76.8945L69.4902 78.6039Z" fill="url(#paint1_linear)"/>
<path d="M71.7122 87.1534C77.0928 87.1534 81.4546 81.9497 81.4546 75.5308C81.4546 69.1118 77.0928 63.9082 71.7122 63.9082C66.3316 63.9082 61.9697 69.1118 61.9697 75.5308C61.9697 81.9497 66.3316 87.1534 71.7122 87.1534Z" fill="url(#paint2_linear)"/>
<path d="M66.6533 71.2249C65.2007 70.9385 62.9461 72.0518 61.5845 72.0048C59.5281 71.9334 52.8113 62.2082 56.6132 64.9861C60.4152 67.7641 60.7563 65.385 63.6319 64.9861C66.5075 64.5873 66.2562 60.5424 69.773 59.9173C71.9943 59.5225 71.3144 59.6249 73.8488 59.9173C76.3833 60.2096 77.0042 59.8196 79.9108 61.0871C82.8173 62.3547 83.7651 62.257 85.4714 64.9861C87.1777 67.7153 86.2977 69.6782 86.7347 72.0048C87.217 74.5708 86.2977 78.6728 85.4714 80.3994C84.6379 82.1473 81.5242 81.7824 80.7085 81.7478C80.034 81.7193 79.8482 76.6343 78.0354 74.9304C76.2225 73.2265 76.7321 76.9028 73.8476 75.5258C70.9631 74.1487 69.5206 71.7899 66.6533 71.2249Z" fill="#FD7D7D"/>
<path d="M65.5585 76.5544C65.9359 76.5544 66.2419 76.2484 66.2419 75.871C66.2419 75.4935 65.9359 75.1875 65.5585 75.1875C65.181 75.1875 64.875 75.4935 64.875 75.871C64.875 76.2484 65.181 76.5544 65.5585 76.5544Z" fill="#333333"/>
<path fill-rule="evenodd" clip-rule="evenodd" d="M71.8151 78.3838C72.1251 78.2742 72.4652 78.4367 72.5748 78.7467C72.7433 79.2232 73.0638 79.6307 73.4866 79.9067C74.1627 80.2383 74.8931 80.4453 75.6426 80.5174C75.9699 80.5488 76.2097 80.8397 76.1783 81.167C76.1468 81.4943 75.856 81.7341 75.5287 81.7026C74.6235 81.6156 73.7421 81.3633 72.928 80.9589L72.9002 80.945L72.8739 80.9284C72.2135 80.5094 71.7129 79.881 71.4522 79.1436C71.3426 78.8336 71.505 78.4934 71.8151 78.3838Z" fill="#333333"/>
<path d="M71.2834 80.0586C71.2834 80.0586 70.7618 81.8848 69.9039 82.22C69.046 82.5551 67.2665 82.1955 67.1813 81.3406C67.0962 80.4857 68.216 81.3815 69.074 81.0481C69.9319 80.7147 71.2834 80.0586 71.2834 80.0586Z" fill="#FF4D4D"/>
<path d="M76.4137 78.6193C76.3277 78.4678 76.2802 78.2975 76.2756 78.1233C76.2741 78.0416 76.2801 77.9599 76.2935 77.8792C76.2781 77.8079 76.2747 77.7344 76.2834 77.6619C76.2934 77.5938 76.3107 77.5269 76.3352 77.4625L76.4012 77.238C76.4334 77.1297 76.4667 77.0243 76.4965 76.9165C76.539 76.7329 76.5647 76.5458 76.5733 76.3575C76.5733 76.2188 76.5441 76.0801 76.5423 75.9378V75.889C76.5245 75.8144 76.5149 75.7382 76.5138 75.6615C76.511 75.5287 76.5224 75.396 76.5477 75.2656C76.5313 75.1893 76.5231 75.1115 76.5233 75.0334C76.5155 74.8236 76.5506 74.6143 76.6263 74.4184C76.6822 74.28 76.747 74.1454 76.8204 74.0154C76.9603 73.7541 77.179 73.5437 77.4455 73.4141C77.534 73.3725 77.6258 73.3384 77.72 73.3122C77.9468 73.2194 78.1899 73.173 78.435 73.1759C78.4653 73.1759 78.4945 73.1759 78.5261 73.1759C78.8198 73.1875 79.0992 73.3059 79.3119 73.5087C79.4953 73.6653 79.6316 73.8698 79.7055 74.0993C79.7477 74.2629 79.7655 74.4318 79.7585 74.6006C79.7863 74.962 79.7143 75.3241 79.5501 75.6472C79.4269 75.7842 78.9547 76.1789 78.8309 76.3152C78.7071 76.4516 78.607 76.604 78.4987 76.7475C78.3961 76.8876 78.3053 77.0359 78.2272 77.191C78.2463 77.16 78.2611 77.1255 78.2814 77.0946C78.2433 77.163 78.2123 77.2315 78.1808 77.3041C78.1272 77.4232 78.0742 77.5423 78.0206 77.6667C77.9676 77.7983 77.9176 77.9352 77.8581 78.0638C77.813 78.1642 77.7609 78.2613 77.7021 78.3543C77.6467 78.4364 77.5848 78.5138 77.5169 78.5859C77.4491 78.6624 77.37 78.7281 77.2824 78.7806C77.2014 78.8369 77.1105 78.8773 77.0145 78.8997C76.9774 78.9084 76.9394 78.9128 76.9013 78.9128C76.8014 78.9114 76.7036 78.8835 76.6179 78.8319C76.5322 78.7803 76.4618 78.707 76.4137 78.6193ZM76.5001 76.8927C76.5066 76.8695 76.512 76.8463 76.5179 76.8225L76.5001 76.8927Z" fill="#FFE6E6"/>
<path d="M77.4824 75.252C77.4681 75.252 77.8795 75.252 77.8646 75.252C77.7199 75.2341 77.8408 75.3609 77.8646 75.252C78.46 72.527 77.6598 69.7152 76.7632 67.5564C76.3543 66.5248 75.7403 65.5869 74.9583 64.7996C74.1764 64.0122 73.2428 63.3917 72.214 62.9757C71.0439 62.5214 69.8029 62.277 68.5479 62.2536C68.4014 62.2488 68.2877 62.1553 68.2942 62.0452C68.3078 61.9843 68.3439 61.9308 68.3952 61.8954C68.4465 61.86 68.5093 61.8452 68.5711 61.8541C69.9047 61.8798 71.2233 62.1403 72.4665 62.6239C73.5513 63.0593 74.5364 63.7105 75.3622 64.5379C76.1879 65.3653 76.8371 66.3517 77.2704 67.4373C78.1915 69.6544 78.9541 72.4657 78.3421 75.252C78.3224 75.3502 77.608 75.252 77.4824 75.252Z" fill="url(#paint3_linear)"/>
<path d="M77.9056 76.0905C78.4495 76.0905 78.8903 75.6497 78.8903 75.1058C78.8903 74.562 78.4495 74.1211 77.9056 74.1211C77.3618 74.1211 76.9209 74.562 76.9209 75.1058C76.9209 75.6497 77.3618 76.0905 77.9056 76.0905Z" fill="#FF4D4D"/>
<path d="M71.4121 80.7383C71.3604 80.7369 71.3111 80.7156 71.2746 80.6789C71.238 80.6422 71.217 80.5928 71.2159 80.5411C71.2147 80.4893 71.2335 80.439 71.2684 80.4007C71.3033 80.3624 71.3515 80.339 71.4032 80.3353C72.8874 80.2723 74.3095 79.7218 75.4493 78.769C76.5891 77.8161 77.383 76.5142 77.708 75.0646C77.7209 75.0135 77.7533 74.9695 77.7982 74.9419C77.8431 74.9143 77.897 74.9055 77.9484 74.9171C77.9998 74.9288 78.0445 74.9601 78.0732 75.0043C78.1018 75.0485 78.112 75.1022 78.1015 75.1539C77.7572 76.6899 76.9162 78.0696 75.7087 79.0795C74.5011 80.0893 72.9944 80.673 71.4217 80.7401L71.4121 80.7383Z" fill="#FF4D4D"/>
<path d="M70.822 81.7416C71.2965 81.7416 71.6811 81.357 71.6811 80.8825C71.6811 80.4081 71.2965 80.0234 70.822 80.0234C70.3475 80.0234 69.9629 80.4081 69.9629 80.8825C69.9629 81.357 70.3475 81.7416 70.822 81.7416Z" fill="black"/>
<path fill-rule="evenodd" clip-rule="evenodd" d="M69.3609 75.8802C69.1953 75.8802 69.0318 75.9156 68.8814 75.9842C68.5821 76.1205 68.2291 75.9884 68.0928 75.6892C67.9565 75.3899 68.0885 75.0369 68.3878 74.9006C68.6934 74.7613 69.0253 74.6895 69.3609 74.6895C69.696 74.6895 70.0274 74.7611 70.3327 74.9C70.6797 75.0563 70.9806 75.2996 71.206 75.6068C71.4316 75.9141 71.5738 76.2748 71.6186 76.6536C71.6572 76.9801 71.4238 77.2761 71.0972 77.3147C70.7707 77.3533 70.4747 77.1199 70.4361 76.7934C70.4155 76.619 70.35 76.4528 70.246 76.3111C70.1422 76.1697 70.0035 76.0575 69.8431 75.9854L69.8404 75.9842L69.8404 75.9842C69.6899 75.9156 69.5265 75.8802 69.3609 75.8802Z" fill="#333333"/>
<path d="M63.0471 68.4946C64.5008 68.4946 65.6792 67.3162 65.6792 65.8625C65.6792 64.4089 64.5008 63.2305 63.0471 63.2305C61.5935 63.2305 60.415 64.4089 60.415 65.8625C60.415 67.3162 61.5935 68.4946 63.0471 68.4946Z" fill="#FD7D7D"/>
<path d="M65.9709 66.7407C67.4246 66.7407 68.603 65.5623 68.603 64.1086C68.603 62.655 67.4246 61.4766 65.9709 61.4766C64.5173 61.4766 63.3389 62.655 63.3389 64.1086C63.3389 65.5623 64.5173 66.7407 65.9709 66.7407Z" fill="#FD7D7D"/>
<path d="M85.2717 70.8345C86.7254 70.8345 87.9038 69.656 87.9038 68.2024C87.9038 66.7487 86.7254 65.5703 85.2717 65.5703C83.8181 65.5703 82.6396 66.7487 82.6396 68.2024C82.6396 69.656 83.8181 70.8345 85.2717 70.8345Z" fill="#FD7D7D"/>
<path d="M85.2717 74.3442C86.7254 74.3442 87.9038 73.1658 87.9038 71.7122C87.9038 70.2585 86.7254 69.0801 85.2717 69.0801C83.8181 69.0801 82.6396 70.2585 82.6396 71.7122C82.6396 73.1658 83.8181 74.3442 85.2717 74.3442Z" fill="#FD7D7D"/>
<path d="M85.2717 77.854C86.7254 77.854 87.9038 76.6756 87.9038 75.2219C87.9038 73.7683 86.7254 72.5898 85.2717 72.5898C83.8181 72.5898 82.6396 73.7683 82.6396 75.2219C82.6396 76.6756 83.8181 77.854 85.2717 77.854Z" fill="#FD7D7D"/>
<path d="M73.5831 211C81.4462 211 87.8205 204.626 87.8205 196.763C87.8205 188.9 81.4462 182.525 73.5831 182.525C65.72 182.525 59.3457 188.9 59.3457 196.763C59.3457 204.626 65.72 211 73.5831 211Z" fill="url(#paint4_linear)"/>
<path d="M75.706 200.75L77.5136 198.942C77.5136 198.942 86.822 207.174 86.7222 208.151C86.6224 209.128 85.7758 209.057 84.9145 208.151C84.4628 208.603 85.8457 209.198 84.9145 209.959C83.9829 209.378 75.706 200.75 75.706 200.75Z" fill="#333333"/>
<path d="M69.0615 183.115C66.7021 180.755 62.8767 180.755 60.5172 183.115C58.1578 185.474 58.1578 189.299 60.5172 191.659L70.0478 201.189C72.4073 203.549 76.2327 203.549 78.5921 201.189C80.9515 198.83 80.9515 195.005 78.5921 192.645L69.0615 183.115Z" fill="#333333"/>
<path d="M60.3522 182.952C60.9131 182.391 61.5792 181.946 62.3123 181.642C63.0454 181.338 63.8312 181.181 64.6248 181.181C65.4184 181.181 66.2043 181.337 66.9375 181.641C67.6707 181.945 68.337 182.39 68.8981 182.951L74.6492 188.702L70.9504 193.551L66.1032 197.248L60.3522 191.497C59.2192 190.364 58.5826 188.827 58.5826 187.225C58.5826 185.622 59.2192 184.086 60.3522 182.952Z" fill="#333333"/>
<path fill-rule="evenodd" clip-rule="evenodd" d="M63.7822 196.551C63.7825 196.551 63.7828 196.551 63.7831 196.55L64.3297 197.935C63.7831 196.55 63.7833 196.55 63.7831 196.55L63.7879 196.549L63.8162 196.537C63.8426 196.526 63.884 196.509 63.9389 196.486C64.0487 196.44 64.2125 196.369 64.419 196.276C64.8329 196.088 65.415 195.809 66.0781 195.45C67.4161 194.724 69.0071 193.709 70.2248 192.497C71.8351 190.775 73.0706 188.738 73.8531 186.514C74.1259 185.738 74.9756 185.331 75.7511 185.603C76.5265 185.876 76.9339 186.726 76.6611 187.501C75.7388 190.123 74.2807 192.524 72.3796 194.551L72.3633 194.568L72.3464 194.585C70.8354 196.096 68.9527 197.277 67.4974 198.066C66.7608 198.466 66.1138 198.776 65.6486 198.987C65.4156 199.092 65.2273 199.174 65.095 199.229C65.0288 199.257 64.9765 199.279 64.9396 199.294L64.8959 199.311L64.883 199.317L64.8788 199.318L64.8767 199.319C64.8765 199.319 64.8762 199.319 64.3297 197.935" fill="black"/>
<path d="M61.8828 190.401C62.2134 190.071 62.2134 189.535 61.8828 189.204C61.5522 188.873 61.0162 188.873 60.6855 189.204C60.3549 189.535 60.3549 190.071 60.6855 190.401C61.0162 190.732 61.5522 190.732 61.8828 190.401Z" fill="black"/>
<path d="M64.5772 193.095C64.9078 192.764 64.9078 192.228 64.5772 191.897C64.2465 191.567 63.7105 191.567 63.3799 191.897C63.0493 192.228 63.0493 192.764 63.3799 193.095C63.7105 193.425 64.2465 193.425 64.5772 193.095Z" fill="black"/>
<path d="M65.4746 188.007C65.8052 187.676 65.8052 187.14 65.4746 186.81C65.144 186.479 64.608 186.479 64.2773 186.81C63.9467 187.14 63.9467 187.676 64.2773 188.007C64.608 188.337 65.144 188.337 65.4746 188.007Z" fill="black"/>
<path d="M62.7813 185.312C63.1119 184.981 63.1119 184.445 62.7813 184.114C62.4506 183.784 61.9146 183.784 61.584 184.114C61.2534 184.445 61.2534 184.981 61.584 185.312C61.9146 185.642 62.4506 185.642 62.7813 185.312Z" fill="black"/>
<path d="M68.169 190.7C68.4996 190.37 68.4996 189.834 68.169 189.503C67.8383 189.172 67.3023 189.172 66.9717 189.503C66.6411 189.834 66.6411 190.37 66.9717 190.7C67.3023 191.031 67.8383 191.031 68.169 190.7Z" fill="black"/>
<path d="M67.5703 184.712C67.9009 184.381 67.9009 183.845 67.5703 183.515C67.2397 183.184 66.7037 183.184 66.373 183.515C66.0424 183.845 66.0424 184.381 66.373 184.712C66.7037 185.043 67.2397 185.043 67.5703 184.712Z" fill="black"/>
<path d="M70.2647 187.407C70.5953 187.077 70.5953 186.541 70.2647 186.21C69.934 185.879 69.398 185.879 69.0674 186.21C68.7368 186.541 68.7368 187.077 69.0674 187.407C69.398 187.738 69.934 187.738 70.2647 187.407Z" fill="black"/>
<path d="M302.296 100.342C309.858 100.342 315.989 94.2109 315.989 86.6483C315.989 79.0857 309.858 72.9551 302.296 72.9551C294.733 72.9551 288.603 79.0857 288.603 86.6483C288.603 94.2109 294.733 100.342 302.296 100.342Z" fill="#FF4D4D"/>
<path d="M302.483 82.7901C303.938 80.2938 308.028 81.0225 308.028 84.1505C308.028 86.3045 305.454 88.5067 302.484 91.4549C299.512 88.5061 296.938 86.3039 296.938 84.1505C296.938 81.0118 301.039 80.3122 302.483 82.7901Z" fill="white"/>
<path d="M178.158 43.1895H146.414C142.633 43.1895 139.567 46.2548 139.567 50.0361C139.567 53.8173 142.633 56.8827 146.414 56.8827H178.158C181.939 56.8827 185.004 53.8173 185.004 50.0361C185.004 46.2548 181.939 43.1895 178.158 43.1895Z" fill="#FFE36B"/>
<path fill-rule="evenodd" clip-rule="evenodd" d="M146.131 49.8263C146.131 49.0043 146.797 48.3379 147.619 48.3379H178.547C179.369 48.3379 180.035 49.0043 180.035 49.8263C180.035 50.6483 179.369 51.3147 178.547 51.3147H147.619C146.797 51.3147 146.131 50.6483 146.131 49.8263Z" fill="white"/>
<path d="M206.734 72.3594H174.99C171.209 72.3594 168.144 75.4247 168.144 79.206C168.144 82.9873 171.209 86.0526 174.99 86.0526H206.734C210.515 86.0526 213.581 82.9873 213.581 79.206C213.581 75.4247 210.515 72.3594 206.734 72.3594Z" fill="#FFE36B"/>
<path fill-rule="evenodd" clip-rule="evenodd" d="M174.707 78.9962C174.707 78.1742 175.373 77.5078 176.195 77.5078H207.123C207.945 77.5078 208.611 78.1742 208.611 78.9962C208.611 79.8182 207.945 80.4846 207.123 80.4846H176.195C175.373 80.4846 174.707 79.8182 174.707 78.9962Z" fill="white"/>
<path d="M251.982 114.037H220.238C216.457 114.037 213.392 117.102 213.392 120.884C213.392 124.665 216.457 127.73 220.238 127.73H251.982C255.763 127.73 258.829 124.665 258.829 120.884C258.829 117.102 255.763 114.037 251.982 114.037Z" fill="#FFE36B"/>
<path fill-rule="evenodd" clip-rule="evenodd" d="M219.956 120.674C219.956 119.852 220.622 119.186 221.444 119.186H252.372C253.194 119.186 253.86 119.852 253.86 120.674C253.86 121.496 253.194 122.162 252.372 122.162H221.444C220.622 122.162 219.956 121.496 219.956 120.674Z" fill="white"/>
<path d="M223.406 143.209H191.662C187.881 143.209 184.815 146.274 184.815 150.056C184.815 153.837 187.881 156.902 191.662 156.902H223.406C227.187 156.902 230.253 153.837 230.253 150.056C230.253 146.274 227.187 143.209 223.406 143.209Z" fill="#FFE36B"/>
<path fill-rule="evenodd" clip-rule="evenodd" d="M191.379 149.846C191.379 149.024 192.045 148.357 192.867 148.357H223.795C224.617 148.357 225.283 149.024 225.283 149.846C225.283 150.668 224.617 151.334 223.795 151.334H192.867C192.045 151.334 191.379 150.668 191.379 149.846Z" fill="white"/>
<path d="M169.227 183.693H137.483C133.702 183.693 130.637 186.759 130.637 190.54C130.637 194.321 133.702 197.387 137.483 197.387H169.227C173.008 197.387 176.074 194.321 176.074 190.54C176.074 186.759 173.008 183.693 169.227 183.693Z" fill="#FFE36B"/>
<path fill-rule="evenodd" clip-rule="evenodd" d="M137.201 190.33C137.201 189.508 137.868 188.842 138.69 188.842H169.617C170.439 188.842 171.106 189.508 171.106 190.33C171.106 191.152 170.439 191.819 169.617 191.819H138.69C137.868 191.819 137.201 191.152 137.201 190.33Z" fill="white"/>
<path d="M223.404 184.883H191.66C187.879 184.883 184.813 187.948 184.813 191.729C184.813 195.511 187.879 198.576 191.66 198.576H223.404C227.185 198.576 230.251 195.511 230.251 191.729C230.251 187.948 227.185 184.883 223.404 184.883Z" fill="#FFE36B"/>
<path fill-rule="evenodd" clip-rule="evenodd" d="M191.377 191.52C191.377 190.698 192.043 190.031 192.865 190.031H223.793C224.615 190.031 225.281 190.698 225.281 191.52C225.281 192.342 224.615 193.008 223.793 193.008H192.865C192.043 193.008 191.377 192.342 191.377 191.52Z" fill="white"/>
<path d="M277.583 184.885H245.839C242.058 184.885 238.992 187.95 238.992 191.731C238.992 195.513 242.058 198.578 245.839 198.578H277.583C281.364 198.578 284.429 195.513 284.429 191.731C284.429 187.95 281.364 184.885 277.583 184.885Z" fill="#FFE36B"/>
<path fill-rule="evenodd" clip-rule="evenodd" d="M245.556 191.522C245.556 190.7 246.222 190.033 247.044 190.033H277.972C278.794 190.033 279.46 190.7 279.46 191.522C279.46 192.344 278.794 193.01 277.972 193.01H247.044C246.222 193.01 245.556 192.344 245.556 191.522Z" fill="white"/>
<path d="M318.067 143.209H286.323C282.542 143.209 279.477 146.274 279.477 150.056C279.477 153.837 282.542 156.902 286.323 156.902H318.067C321.848 156.902 324.914 153.837 324.914 150.056C324.914 146.274 321.848 143.209 318.067 143.209Z" fill="#FFE36B"/>
<path fill-rule="evenodd" clip-rule="evenodd" d="M286.04 149.846C286.04 149.024 286.706 148.357 287.528 148.357H318.456C319.278 148.357 319.944 149.024 319.944 149.846C319.944 150.668 319.278 151.334 318.456 151.334H287.528C286.706 151.334 286.04 150.668 286.04 149.846Z" fill="white"/>
<path d="M223.406 14.0137H191.662C187.881 14.0137 184.815 17.079 184.815 20.8603C184.815 24.6416 187.881 27.7069 191.662 27.7069H223.406C227.187 27.7069 230.253 24.6416 230.253 20.8603C230.253 17.079 227.187 14.0137 223.406 14.0137Z" fill="#FFE36B"/>
<path fill-rule="evenodd" clip-rule="evenodd" d="M191.378 20.6505C191.378 19.8285 192.044 19.1621 192.866 19.1621H223.794C224.616 19.1621 225.282 19.8285 225.282 20.6505C225.282 21.4725 224.616 22.1389 223.794 22.1389H192.866C192.044 22.1389 191.378 21.4725 191.378 20.6505Z" fill="white"/>
<path d="M263.302 47.3555H254.371C253.549 47.3555 252.883 48.0218 252.883 48.8439C252.883 49.6659 253.549 50.3323 254.371 50.3323H263.302C264.124 50.3323 264.79 49.6659 264.79 48.8439C264.79 48.0218 264.124 47.3555 263.302 47.3555Z" fill="#B2E672"/>
<path d="M257.646 44.0812V53.0116C257.646 53.8336 258.312 54.5 259.134 54.5C259.956 54.5 260.622 53.8336 260.622 53.0116V44.0812C260.622 43.2592 259.956 42.5928 259.134 42.5928C258.312 42.5928 257.646 43.2592 257.646 44.0812Z" fill="#B2E672"/>
<path d="M13.3142 48.1283C11.8926 47.3079 11.4036 45.4839 12.224 44.0624C12.6214 43.3738 13.2632 42.8812 14.0312 42.6753C14.7992 42.4694 15.6014 42.5749 16.2899 42.9722C17.7114 43.7927 18.2005 45.6166 17.3801 47.0381C16.5596 48.4597 14.7357 48.9487 13.3142 48.1283Z" fill="#B2E672"/>
<path d="M15.9926 43.4888L15.9926 43.4888C14.8554 42.8325 13.3963 43.2237 12.74 44.3609C12.0837 45.498 12.4749 46.9571 13.6121 47.6134C14.7493 48.2697 16.2083 47.8785 16.8646 46.7414C17.5209 45.6042 17.1297 44.1451 15.9926 43.4888ZM16.5879 42.4574C18.2965 43.4435 18.8822 45.628 17.8961 47.3366C16.9099 49.0452 14.7254 49.6309 13.0168 48.6448C11.3082 47.6587 10.7225 45.4742 11.7086 43.7656C12.6947 42.057 14.8792 41.4713 16.5879 42.4574Z" fill="#333333"/>
<path d="M282.543 30.6807C283.703 29.5202 285.592 29.5202 286.752 30.6807C287.314 31.2427 287.624 31.9901 287.624 32.7852C287.624 33.5802 287.314 34.3276 286.752 34.8896C285.592 36.0501 283.703 36.0501 282.543 34.8897C281.383 33.7292 281.383 31.8411 282.543 30.6807Z" fill="#FF4D4D"/>
<path d="M286.332 34.4687L286.332 34.4687C287.26 33.5404 287.26 32.0299 286.332 31.1016C285.403 30.1734 283.893 30.1734 282.965 31.1016C282.036 32.0299 282.036 33.5404 282.965 34.4687C283.893 35.397 285.403 35.397 286.332 34.4687ZM287.174 35.3106C285.779 36.7054 283.518 36.7054 282.123 35.3106C280.728 33.9159 280.728 31.6545 282.123 30.2597C283.518 28.8649 285.779 28.8649 287.174 30.2597C288.569 31.6545 288.569 33.9159 287.174 35.3106Z" fill="#333333"/>
<defs>
<linearGradient id="paint0_linear" x1="60.3991" y1="48.6074" x2="76.2205" y2="76.3885" gradientUnits="userSpaceOnUse">
<stop stop-color="#FEE185"/>
<stop offset="1" stop-color="#FFE36B"/>
</linearGradient>
<linearGradient id="paint1_linear" x1="86.9258" y1="104.317" x2="67.7289" y2="95.8783" gradientUnits="userSpaceOnUse">
<stop stop-color="#FF4D4D"/>
<stop offset="0.41" stop-color="#FFB7B7"/>
<stop offset="1" stop-color="#FFE5E6"/>
</linearGradient>
<linearGradient id="paint2_linear" x1="74.9661" y1="78.8548" x2="109.844" y2="98.2797" gradientUnits="userSpaceOnUse">
<stop stop-color="#FFE6E6"/>
<stop offset="1" stop-color="#FF4D4D"/>
</linearGradient>
<linearGradient id="paint3_linear" x1="78.2646" y1="70.1741" x2="71.1061" y2="64.5974" gradientUnits="userSpaceOnUse">
<stop stop-color="#FF4D4D"/>
<stop offset="1" stop-color="#FD7D7D"/>
</linearGradient>
<linearGradient id="paint4_linear" x1="70.1661" y1="186.142" x2="78.5946" y2="201.974" gradientUnits="userSpaceOnUse">
<stop stop-color="#FEE185"/>
<stop offset="1" stop-color="#FFE36B"/>
</linearGradient>
</defs>
</svg>
