<svg width="590" height="393" viewBox="0 0 590 393" fill="none" xmlns="http://www.w3.org/2000/svg">
<path d="M590 0H0V393H590V0Z" fill="white"/>
<path d="M211.96 139.42C211.96 139.42 209.204 124.622 202.744 122.767C196.284 120.911 192.576 133.853 186.117 131.998C179.659 130.143 183.361 117.2 176.901 115.345C170.441 113.489 166.73 126.43 160.269 124.574C153.809 122.719 157.513 109.776 151.053 107.921C144.593 106.066 134.424 117.151 134.424 117.151" stroke="#B2E672" stroke-width="5" stroke-linecap="round"/>
<path d="M217.991 138.691C219.719 140.905 219.326 144.113 217.116 145.843C214.906 147.573 211.703 147.18 209.976 144.966C208.248 142.752 208.641 139.544 210.851 137.814C213.061 136.084 216.264 136.477 217.991 138.691Z" fill="#B2E672"/>
<path d="M217.419 139.138C215.938 137.241 213.192 136.904 211.298 138.387C209.404 139.869 209.067 142.619 210.548 144.517C212.028 146.414 214.774 146.751 216.668 145.268C218.562 143.786 218.899 141.036 217.419 139.138ZM218.564 138.242C220.541 140.776 220.093 144.435 217.563 146.415C215.033 148.396 211.38 147.947 209.403 145.413C207.425 142.879 207.873 139.22 210.403 137.24C212.933 135.259 216.587 135.708 218.564 138.242Z" fill="#333333"/>
<path d="M287.347 295.117C287.347 295.117 288.023 310.157 294.163 312.894C300.304 315.631 305.773 303.33 311.912 306.067C318.051 308.804 312.587 321.107 318.728 323.844C324.868 326.581 330.339 314.281 336.481 317.019C342.623 319.757 337.157 332.059 343.297 334.796C349.438 337.533 361.048 327.97 361.048 327.97" stroke="#FF4D4D" stroke-width="5" stroke-linecap="round"/>
<path d="M281.273 294.998C279.87 292.565 280.704 289.442 283.133 288.037C284.31 287.356 285.681 287.174 286.993 287.526C288.306 287.878 289.403 288.721 290.083 289.9C291.487 292.332 290.652 295.455 288.223 296.861C287.047 297.542 285.676 297.723 284.363 297.371C283.05 297.019 281.953 296.176 281.273 294.998Z" fill="#FF4D4D"/>
<path d="M281.902 294.634C283.105 296.72 285.778 297.436 287.86 296.231C289.941 295.026 290.657 292.35 289.454 290.264C288.871 289.254 287.931 288.532 286.805 288.23C285.68 287.928 284.505 288.084 283.497 288.667C281.415 289.872 280.699 292.549 281.902 294.634L281.902 294.634ZM280.644 295.363C279.037 292.578 279.989 289.016 282.769 287.407C285.55 285.798 289.106 286.751 290.712 289.536C292.319 292.321 291.367 295.883 288.587 297.492C285.806 299.101 282.25 298.148 280.644 295.363Z" fill="#333333"/>
<path d="M158.301 289.858L170.733 336.331L204.699 302.31L158.301 289.858Z" fill="#FFFBE6"/>
<path d="M154.908 294.711L168.671 346.159L206.273 308.496L154.908 294.711Z" stroke="#161615" stroke-width="2" stroke-miterlimit="10"/>
<path d="M79.5625 190.314L109.353 220.153" stroke="#333333" stroke-width="2"/>
<path d="M94.4583 211.054C97.6687 211.054 100.271 208.448 100.271 205.232C100.271 202.017 97.6687 199.41 94.4583 199.41C91.248 199.41 88.6455 202.017 88.6455 205.232C88.6455 208.448 91.248 211.054 94.4583 211.054Z" fill="#FF4D4D"/>
<path d="M94.4578 210.327C97.2669 210.327 99.544 208.047 99.544 205.233C99.544 202.419 97.2669 200.139 94.4578 200.139C91.6488 200.139 89.3716 202.419 89.3716 205.233C89.3716 208.047 91.6488 210.327 94.4578 210.327Z" stroke="#333333" stroke-width="2"/>
<path d="M377.281 254.482L416.166 244.772" stroke="#333333" stroke-width="2"/>
<path d="M394.104 253.994C391.7 252.547 390.92 249.411 392.364 247.004C393.809 244.596 396.94 243.814 399.344 245.261C401.748 246.707 402.528 249.843 401.084 252.251C399.639 254.659 396.508 255.441 394.104 253.994Z" fill="#FFD717"/>
<path d="M398.969 245.884C396.909 244.644 394.225 245.314 392.987 247.378C391.749 249.442 392.418 252.13 394.479 253.37C396.539 254.61 399.223 253.94 400.461 251.876C401.699 249.812 401.03 247.124 398.969 245.884ZM399.718 244.636C402.47 246.292 403.36 249.869 401.707 252.626C400.053 255.382 396.482 256.274 393.73 254.618C390.978 252.962 390.088 249.385 391.742 246.628C393.395 243.872 396.966 242.98 399.718 244.636Z" fill="#333333"/>
<path d="M57.4971 100.435C57.4971 100.435 64.8583 169.573 213.353 206.69C361.848 243.807 377.383 321.133 464.757 314.401" stroke="black" stroke-width="2" stroke-dasharray="5 5"/>
<path d="M57.4971 285.289C57.4971 285.289 155.683 291.111 214.806 206.688C273.929 122.266 413.168 210.873 460.397 178.305" stroke="black" stroke-width="2" stroke-dasharray="5 5"/>
<path d="M458.581 87.333C472.827 87.333 484.375 75.7658 484.375 61.4971C484.375 47.2283 472.827 35.6611 458.581 35.6611C444.335 35.6611 432.787 47.2283 432.787 61.4971C432.787 75.7658 444.335 87.333 458.581 87.333Z" fill="url(#paint0_linear)"/>
<path d="M458.581 212.511C472.827 212.511 484.375 200.943 484.375 186.674C484.375 172.405 472.827 160.838 458.581 160.838C444.335 160.838 432.787 172.405 432.787 186.674C432.787 200.943 444.335 212.511 458.581 212.511Z" fill="url(#paint1_linear)"/>
<path d="M458.581 336.962C472.827 336.962 484.375 325.394 484.375 311.125C484.375 296.856 472.827 285.289 458.581 285.289C444.335 285.289 432.787 296.856 432.787 311.125C432.787 325.394 444.335 336.962 458.581 336.962Z" fill="url(#paint2_linear)"/>
<path d="M228.612 188.208H198.094C196.489 188.208 195.188 189.511 195.188 191.119V221.686C195.188 223.294 196.489 224.597 198.094 224.597H228.612C230.217 224.597 231.518 223.294 231.518 221.686V191.119C231.518 189.511 230.217 188.208 228.612 188.208Z" fill="#FF4D4D"/>
<path d="M228.612 188.937H198.095C196.891 188.937 195.915 189.914 195.915 191.12V221.687C195.915 222.892 196.891 223.87 198.095 223.87H228.612C229.816 223.87 230.792 222.892 230.792 221.687V191.12C230.792 189.914 229.816 188.937 228.612 188.937Z" stroke="#FF4D4D" stroke-width="2" stroke-linecap="round"/>
<path d="M203.02 206.033C203.02 212.817 207.852 217.905 215.02 217.905C221.004 217.905 224.236 214.065 224.236 214.065L221.356 209.969C221.356 209.969 218.732 212.785 215.276 212.785C211.052 212.785 208.812 209.297 208.812 205.905C208.812 202.609 210.892 199.377 215.276 199.377C218.444 199.377 221.004 201.713 221.004 201.713L223.596 197.489C223.596 197.489 220.684 194.257 215.02 194.257C208.14 194.257 203.02 199.377 203.02 206.033Z" fill="white"/>
<path d="M497.722 74.3691C520.635 78.4629 466.87 162.385 528.121 162.385C566.913 162.385 545.135 309.419 499.537 309.419" stroke="#FFE36B" stroke-width="2" stroke-dasharray="5 5"/>
<path d="M496.048 67.5459L490.009 73.6057L496.048 79.6548" stroke="#FFD717" stroke-width="2" stroke-linecap="round" stroke-linejoin="round"/>
<path d="M423.007 78.3477L423.003 69.7812L414.466 69.7854" stroke="#FFD717" stroke-width="2" stroke-linecap="round" stroke-linejoin="round"/>
<path d="M454.816 150.786L459.092 158.203L466.483 153.92" stroke="#FFD717" stroke-width="2" stroke-linecap="round" stroke-linejoin="round"/>
<path d="M497.41 302.938L491.37 308.997L497.41 315.046" stroke="#FFD717" stroke-width="2" stroke-linecap="round" stroke-linejoin="round"/>
<path d="M418.254 74.2334C418.254 74.2334 385.194 106.256 395.73 119.356C406.265 132.456 450.951 122.995 460.397 126.634C469.843 130.273 460.397 153.562 460.397 153.562" stroke="#FEE185" stroke-width="2" stroke-miterlimit="16" stroke-dasharray="5 5"/>
<path d="M534.052 149.194H519.52C517.514 149.194 515.887 150.824 515.887 152.833V167.389C515.887 169.399 517.514 171.028 519.52 171.028H534.052C536.059 171.028 537.685 169.399 537.685 167.389V152.833C537.685 150.824 536.059 149.194 534.052 149.194Z" fill="#B2E672"/>
<path d="M526.786 155.745V164.478" stroke="white" stroke-width="3" stroke-linecap="round"/>
<path d="M522.426 160.11H531.145" stroke="white" stroke-width="3" stroke-linecap="round"/>
<path d="M376.763 182.505C378.75 182.505 380.361 180.892 380.361 178.901C380.361 176.911 378.75 175.298 376.763 175.298C374.777 175.298 373.166 176.911 373.166 178.901C373.166 180.892 374.777 182.505 376.763 182.505Z" fill="#FF4D4D"/>
<path d="M147.158 188.327C149.145 188.327 150.755 186.714 150.755 184.724C150.755 182.734 149.145 181.121 147.158 181.121C145.171 181.121 143.561 182.734 143.561 184.724C143.561 186.714 145.171 188.327 147.158 188.327Z" fill="#FF4D4D"/>
<path d="M542.291 246.351C542.291 246.351 529.733 243.622 525.053 246.792C520.374 249.962 523.321 251.262 526.178 251.526C529.034 251.79 530.98 249.982 534.662 248.22C537.067 247.128 539.654 246.495 542.291 246.351V246.351Z" fill="#B2E672"/>
<path d="M397.456 98.0918C397.456 98.0918 389.24 88.186 383.6 87.7898C377.959 87.3935 379.48 90.2381 381.569 92.2103C383.658 94.1825 386.304 93.9619 390.292 94.85C392.86 95.4768 395.289 96.5761 397.456 98.0918V98.0918Z" fill="#B2E672"/>
<path d="M549.631 184.582C549.631 184.582 556.58 173.748 562.131 172.666C567.681 171.585 566.517 174.594 564.684 176.806C562.851 179.019 560.197 179.125 556.347 180.49C553.874 181.426 551.597 182.813 549.631 184.582V184.582Z" fill="#B2E672"/>
<path d="M466.568 126.19C466.568 126.19 470.481 113.929 475.561 111.448C480.641 108.966 480.294 112.173 479.095 114.784C477.896 117.395 475.362 118.185 471.996 120.501C469.85 122.044 468.01 123.973 466.568 126.19V126.19Z" fill="#B2E672"/>
<path d="M436.419 113.975H421.887C419.88 113.975 418.254 115.604 418.254 117.614V132.169C418.254 134.179 419.88 135.808 421.887 135.808H436.419C438.425 135.808 440.052 134.179 440.052 132.169V117.614C440.052 115.604 438.425 113.975 436.419 113.975Z" fill="#FF4D4D"/>
<path d="M436.419 114.703H421.887C420.282 114.703 418.981 116.006 418.981 117.614V132.17C418.981 133.778 420.282 135.081 421.887 135.081H436.419C438.025 135.081 439.326 133.778 439.326 132.17V117.614C439.326 116.006 438.025 114.703 436.419 114.703Z" stroke="#FF4D4D" stroke-width="2" stroke-linecap="round"/>
<path d="M423.876 122.28C424.293 121.237 425.022 120.349 425.963 119.738C426.904 119.128 428.011 118.825 429.132 118.871C430.252 118.825 431.36 119.128 432.301 119.738C433.242 120.349 433.971 121.237 434.387 122.28" stroke="white" stroke-width="2" stroke-linecap="round"/>
<path d="M423.876 128.298C424.244 129.403 424.95 130.364 425.893 131.045C426.836 131.726 427.969 132.092 429.132 132.093C430.295 132.092 431.428 131.726 432.371 131.045C433.314 130.364 434.02 129.403 434.387 128.298" stroke="white" stroke-width="2" stroke-linecap="round"/>
<path d="M436.144 129.41L434.603 126.735L431.933 128.279" stroke="white" stroke-width="2" stroke-linecap="round" stroke-linejoin="round"/>
<path d="M421.799 121.21L423.34 123.885L426.011 122.341" stroke="white" stroke-width="2" stroke-linecap="round" stroke-linejoin="round"/>
<path d="M453.775 322.614L457.597 346.009H468.642L463.543 320.487L453.775 322.614Z" fill="url(#paint3_linear)"/>
<path d="M456.535 333.248C463.219 333.248 468.638 326.773 468.638 318.786C468.638 310.798 463.219 304.323 456.535 304.323C449.85 304.323 444.432 310.798 444.432 318.786C444.432 326.773 449.85 333.248 456.535 333.248Z" fill="url(#paint4_linear)"/>
<path d="M450.251 313.429C448.446 313.073 445.645 314.458 443.953 314.399C441.398 314.31 433.054 302.208 437.777 305.665C442.5 309.122 442.924 306.162 446.496 305.665C450.069 305.169 449.757 300.134 454.126 299.358C456.887 298.866 456.04 298.994 459.189 299.358C462.337 299.721 463.112 299.236 466.72 300.813C470.327 302.39 471.508 302.269 473.628 305.665C475.747 309.062 474.654 311.504 475.197 314.399C475.796 317.592 474.654 322.696 473.628 324.847C472.591 327.022 468.724 326.568 467.712 326.525C466.873 326.489 466.643 320.162 464.391 318.041C462.139 315.921 462.772 320.496 459.189 318.786C455.605 317.076 453.811 314.132 450.251 313.429Z" fill="#FD7D7D"/>
<path d="M448.891 320.063C449.36 320.063 449.74 319.682 449.74 319.211C449.74 318.741 449.36 318.36 448.891 318.36C448.422 318.36 448.042 318.741 448.042 319.211C448.042 319.682 448.422 320.063 448.891 320.063Z" fill="#333333"/>
<path d="M456.91 323.038C457.178 323.8 457.694 324.449 458.374 324.882C459.305 325.344 460.313 325.633 461.347 325.733" stroke="#333333" stroke-linecap="round"/>
<path d="M456.004 324.421C456.004 324.421 455.356 326.694 454.29 327.11C453.224 327.525 451.014 327.079 450.908 326.018C450.801 324.957 452.193 326.07 453.258 325.654C454.323 325.239 456.004 324.421 456.004 324.421Z" fill="#FF4D4D"/>
<path d="M462.376 322.631C462.269 322.443 462.21 322.231 462.204 322.014C462.202 321.911 462.21 321.809 462.226 321.708C462.207 321.619 462.203 321.528 462.214 321.438C462.226 321.352 462.247 321.269 462.277 321.188L462.358 320.909C462.398 320.774 462.439 320.642 462.476 320.508C462.53 320.281 462.564 320.05 462.576 319.817C462.576 319.644 462.539 319.472 462.537 319.294V319.234C462.513 319.141 462.499 319.046 462.495 318.951C462.493 318.785 462.508 318.62 462.54 318.458C462.52 318.362 462.509 318.265 462.51 318.167C462.501 317.906 462.546 317.647 462.64 317.404C462.71 317.232 462.79 317.064 462.882 316.902C463.056 316.578 463.327 316.316 463.658 316.155C463.767 316.103 463.881 316.061 463.998 316.028C464.28 315.912 464.582 315.854 464.887 315.858C464.925 315.858 464.96 315.858 465 315.858C465.367 315.871 465.717 316.018 465.983 316.272C466.211 316.467 466.38 316.721 466.472 317.007C466.524 317.21 466.546 317.42 466.537 317.63C466.57 318.081 466.479 318.532 466.273 318.933C466.121 319.104 465.531 319.595 465.38 319.764C465.229 319.934 465.101 320.123 464.967 320.302C464.839 320.477 464.726 320.661 464.629 320.855C464.653 320.816 464.671 320.773 464.696 320.735C464.649 320.82 464.61 320.906 464.571 320.995C464.505 321.141 464.439 321.295 464.373 321.446C464.307 321.61 464.244 321.78 464.171 321.941C464.115 322.066 464.051 322.188 463.977 322.304C463.909 322.408 463.832 322.505 463.747 322.596C463.663 322.691 463.565 322.772 463.456 322.838C463.356 322.909 463.243 322.96 463.124 322.989C463.078 323 463.031 323.005 462.983 323.005C462.858 323.003 462.736 322.967 462.629 322.901C462.522 322.836 462.435 322.742 462.376 322.631ZM462.483 320.483C462.491 320.454 462.497 320.425 462.505 320.395L462.483 320.483Z" fill="#FFE6E6"/>
<path d="M463.704 318.443C463.686 318.443 464.197 318.443 464.179 318.443C464 318.421 464.149 318.579 464.179 318.443C464.922 315.052 463.925 311.553 462.811 308.868C462.303 307.584 461.54 306.417 460.569 305.437C459.597 304.458 458.438 303.685 457.16 303.168C455.706 302.603 454.164 302.298 452.605 302.269C452.424 302.263 452.282 302.147 452.29 302.01C452.307 301.934 452.352 301.868 452.416 301.824C452.48 301.78 452.558 301.762 452.634 301.773C454.291 301.805 455.929 302.129 457.473 302.73C458.821 303.272 460.045 304.082 461.071 305.112C462.097 306.141 462.903 307.368 463.442 308.719C464.586 311.478 465.534 314.978 464.774 318.443C464.747 318.565 463.863 318.443 463.704 318.443Z" fill="url(#paint5_linear)"/>
<path d="M464.229 319.485C464.905 319.485 465.453 318.936 465.453 318.259C465.453 317.582 464.905 317.033 464.229 317.033C463.553 317.033 463.005 317.582 463.005 318.259C463.005 318.936 463.553 319.485 464.229 319.485Z" fill="#FF4D4D"/>
<path d="M456.163 325.266C456.098 325.264 456.037 325.238 455.992 325.192C455.946 325.146 455.92 325.085 455.919 325.02C455.918 324.956 455.941 324.893 455.984 324.846C456.028 324.798 456.088 324.769 456.152 324.764C457.996 324.686 459.763 324 461.179 322.814C462.595 321.627 463.581 320.007 463.984 318.202C463.99 318.169 464.003 318.137 464.021 318.109C464.04 318.08 464.064 318.056 464.092 318.037C464.121 318.018 464.152 318.005 464.186 317.999C464.219 317.993 464.253 317.994 464.286 318.001C464.32 318.009 464.351 318.023 464.378 318.043C464.406 318.063 464.429 318.088 464.446 318.118C464.463 318.147 464.475 318.179 464.479 318.213C464.484 318.247 464.481 318.281 464.472 318.314C464.044 320.225 463 321.942 461.499 323.198C459.999 324.454 458.127 325.181 456.174 325.264L456.163 325.266Z" fill="#FF4D4D"/>
<path d="M455.429 326.515C456.018 326.515 456.496 326.036 456.496 325.446C456.496 324.855 456.018 324.376 455.429 324.376C454.839 324.376 454.361 324.855 454.361 325.446C454.361 326.036 454.839 326.515 455.429 326.515Z" fill="black"/>
<path d="M452.712 318.68C452.996 318.55 453.303 318.483 453.615 318.483C453.926 318.483 454.234 318.55 454.517 318.68C454.833 318.822 455.106 319.043 455.311 319.323C455.515 319.602 455.644 319.93 455.685 320.274" stroke="#333333" stroke-linecap="round"/>
<path d="M445.769 310.033C447.575 310.033 449.039 308.567 449.039 306.758C449.039 304.95 447.575 303.483 445.769 303.483C443.963 303.483 442.5 304.95 442.5 306.758C442.5 308.567 443.963 310.033 445.769 310.033Z" fill="#FD7D7D"/>
<path d="M449.403 307.849C451.208 307.849 452.672 306.383 452.672 304.574C452.672 302.765 451.208 301.299 449.403 301.299C447.597 301.299 446.133 302.765 446.133 304.574C446.133 306.383 447.597 307.849 449.403 307.849Z" fill="#FD7D7D"/>
<path d="M473.38 312.945C475.186 312.945 476.65 311.479 476.65 309.67C476.65 307.861 475.186 306.395 473.38 306.395C471.574 306.395 470.11 307.861 470.11 309.67C470.11 311.479 471.574 312.945 473.38 312.945Z" fill="#FD7D7D"/>
<path d="M473.38 317.311C475.186 317.311 476.65 315.844 476.65 314.036C476.65 312.227 475.186 310.761 473.38 310.761C471.574 310.761 470.11 312.227 470.11 314.036C470.11 315.844 471.574 317.311 473.38 317.311Z" fill="#FD7D7D"/>
<path d="M473.38 321.677C475.186 321.677 476.65 320.211 476.65 318.403C476.65 316.594 475.186 315.128 473.38 315.128C471.574 315.128 470.11 316.594 470.11 318.403C470.11 320.211 471.574 321.677 473.38 321.677Z" fill="#FD7D7D"/>
<path d="M453.775 200.292L457.597 223.687H468.642L463.543 198.165L453.775 200.292Z" fill="url(#paint6_linear)"/>
<path d="M456.535 210.927C463.219 210.927 468.638 204.452 468.638 196.465C468.638 188.477 463.219 182.002 456.535 182.002C449.85 182.002 444.432 188.477 444.432 196.465C444.432 204.452 449.85 210.927 456.535 210.927Z" fill="url(#paint7_linear)"/>
<path d="M450.251 191.106C448.446 190.75 445.645 192.135 443.953 192.076C441.398 191.988 433.054 179.886 437.777 183.343C442.5 186.8 442.924 183.839 446.496 183.343C450.069 182.847 449.757 177.812 454.126 177.035C456.887 176.544 456.04 176.671 459.189 177.035C462.337 177.399 463.112 176.914 466.72 178.491C470.327 180.068 471.508 179.946 473.628 183.343C475.747 186.74 474.654 189.181 475.197 192.076C475.796 195.269 474.654 200.373 473.628 202.524C472.591 204.7 468.724 204.245 467.712 204.202C466.873 204.166 466.643 197.84 464.391 195.719C462.139 193.598 462.772 198.173 459.189 196.463C455.605 194.754 453.811 191.809 450.251 191.106Z" fill="#FD7D7D"/>
<path d="M448.891 197.739C449.36 197.739 449.74 197.359 449.74 196.889C449.74 196.419 449.36 196.038 448.891 196.038C448.422 196.038 448.042 196.419 448.042 196.889C448.042 197.359 448.422 197.739 448.891 197.739Z" fill="#333333"/>
<path d="M456.91 200.717C457.178 201.478 457.694 202.128 458.374 202.561C459.305 203.023 460.313 203.311 461.347 203.411" stroke="#333333" stroke-linecap="round"/>
<path d="M456.004 202.1C456.004 202.1 455.356 204.373 454.29 204.788C453.224 205.204 451.014 204.758 450.908 203.697C450.801 202.635 452.193 203.748 453.258 203.333C454.323 202.917 456.004 202.1 456.004 202.1Z" fill="#FF4D4D"/>
<path d="M462.376 200.308C462.269 200.12 462.21 199.908 462.204 199.691C462.202 199.588 462.21 199.486 462.226 199.385C462.207 199.296 462.203 199.205 462.214 199.115C462.226 199.029 462.247 198.946 462.277 198.865L462.358 198.585C462.398 198.451 462.439 198.319 462.476 198.185C462.53 197.958 462.564 197.727 462.576 197.494C462.576 197.32 462.539 197.149 462.537 196.971V196.911C462.513 196.818 462.499 196.723 462.495 196.628C462.493 196.462 462.508 196.297 462.54 196.135C462.52 196.039 462.509 195.942 462.51 195.844C462.501 195.583 462.546 195.324 462.64 195.081C462.71 194.908 462.79 194.741 462.882 194.579C463.056 194.254 463.327 193.993 463.658 193.832C463.767 193.78 463.881 193.737 463.998 193.705C464.28 193.589 464.582 193.531 464.887 193.534C464.925 193.534 464.96 193.534 465 193.534C465.367 193.547 465.717 193.695 465.983 193.948C466.211 194.143 466.38 194.398 466.472 194.684C466.524 194.887 466.546 195.097 466.537 195.307C466.57 195.758 466.479 196.208 466.273 196.61C466.121 196.78 465.531 197.272 465.38 197.441C465.229 197.611 465.101 197.8 464.967 197.979C464.839 198.154 464.726 198.338 464.629 198.532C464.653 198.493 464.671 198.45 464.696 198.411C464.649 198.497 464.61 198.582 464.571 198.672C464.505 198.818 464.439 198.972 464.373 199.123C464.307 199.287 464.244 199.457 464.171 199.617C464.115 199.743 464.051 199.865 463.977 199.981C463.909 200.085 463.832 200.182 463.747 200.272C463.663 200.368 463.565 200.449 463.456 200.515C463.356 200.586 463.243 200.637 463.124 200.666C463.078 200.677 463.031 200.682 462.983 200.682C462.858 200.68 462.736 200.644 462.629 200.578C462.522 200.512 462.435 200.419 462.376 200.308ZM462.483 198.16C462.491 198.131 462.497 198.101 462.505 198.072L462.483 198.16Z" fill="#FFE6E6"/>
<path d="M463.704 196.12C463.686 196.12 464.197 196.12 464.179 196.12C464 196.097 464.149 196.255 464.179 196.12C464.922 192.729 463.925 189.229 462.811 186.544C462.303 185.261 461.54 184.094 460.569 183.114C459.597 182.134 458.438 181.362 457.16 180.845C455.706 180.279 454.164 179.975 452.605 179.946C452.424 179.94 452.282 179.824 452.29 179.687C452.307 179.611 452.352 179.545 452.416 179.501C452.48 179.457 452.558 179.438 452.634 179.449C454.291 179.481 455.929 179.806 457.473 180.407C458.821 180.949 460.045 181.759 461.071 182.788C462.097 183.818 462.903 185.045 463.442 186.396C464.586 189.154 465.534 192.655 464.774 196.12C464.747 196.241 463.863 196.12 463.704 196.12Z" fill="url(#paint8_linear)"/>
<path d="M464.229 197.163C464.905 197.163 465.453 196.615 465.453 195.938C465.453 195.261 464.905 194.712 464.229 194.712C463.553 194.712 463.005 195.261 463.005 195.938C463.005 196.615 463.553 197.163 464.229 197.163Z" fill="#FF4D4D"/>
<path d="M456.163 202.945C456.098 202.943 456.037 202.917 455.992 202.871C455.946 202.825 455.92 202.764 455.919 202.699C455.918 202.635 455.941 202.573 455.984 202.525C456.028 202.477 456.088 202.448 456.152 202.444C457.996 202.365 459.763 201.679 461.179 200.493C462.595 199.306 463.581 197.685 463.984 195.881C463.99 195.848 464.003 195.816 464.021 195.787C464.04 195.759 464.064 195.734 464.092 195.716C464.121 195.697 464.152 195.684 464.186 195.678C464.219 195.672 464.253 195.673 464.286 195.68C464.32 195.688 464.351 195.702 464.378 195.722C464.406 195.742 464.429 195.767 464.446 195.796C464.463 195.826 464.475 195.858 464.479 195.892C464.484 195.925 464.481 195.96 464.472 195.992C464.044 197.904 463 199.62 461.499 200.877C459.999 202.134 458.127 202.86 456.174 202.944L456.163 202.945Z" fill="#FF4D4D"/>
<path d="M455.429 204.193C456.018 204.193 456.496 203.715 456.496 203.124C456.496 202.534 456.018 202.056 455.429 202.056C454.839 202.056 454.361 202.534 454.361 203.124C454.361 203.715 454.839 204.193 455.429 204.193Z" fill="black"/>
<path d="M452.712 196.357C452.996 196.228 453.303 196.161 453.615 196.161C453.926 196.161 454.234 196.228 454.517 196.357C454.833 196.499 455.106 196.721 455.311 197C455.515 197.28 455.644 197.607 455.685 197.951" stroke="#333333" stroke-linecap="round"/>
<path d="M445.769 187.712C447.575 187.712 449.039 186.245 449.039 184.437C449.039 182.628 447.575 181.162 445.769 181.162C443.963 181.162 442.5 182.628 442.5 184.437C442.5 186.245 443.963 187.712 445.769 187.712Z" fill="#FD7D7D"/>
<path d="M449.403 185.527C451.208 185.527 452.672 184.061 452.672 182.252C452.672 180.443 451.208 178.977 449.403 178.977C447.597 178.977 446.133 180.443 446.133 182.252C446.133 184.061 447.597 185.527 449.403 185.527Z" fill="#FD7D7D"/>
<path d="M473.38 190.622C475.186 190.622 476.65 189.156 476.65 187.347C476.65 185.538 475.186 184.072 473.38 184.072C471.574 184.072 470.11 185.538 470.11 187.347C470.11 189.156 471.574 190.622 473.38 190.622Z" fill="#FD7D7D"/>
<path d="M473.38 194.989C475.186 194.989 476.65 193.523 476.65 191.714C476.65 189.905 475.186 188.438 473.38 188.438C471.574 188.438 470.11 189.905 470.11 191.714C470.11 193.523 471.574 194.989 473.38 194.989Z" fill="#FD7D7D"/>
<path d="M473.38 199.356C475.186 199.356 476.65 197.889 476.65 196.081C476.65 194.272 475.186 192.806 473.38 192.806C471.574 192.806 470.11 194.272 470.11 196.081C470.11 197.889 471.574 199.356 473.38 199.356Z" fill="#FD7D7D"/>
<path d="M453.775 74.4409L457.597 97.836H468.642L463.543 72.3145L453.775 74.4409Z" fill="url(#paint9_linear)"/>
<path d="M456.535 85.076C463.219 85.076 468.638 78.601 468.638 70.6137C468.638 62.6264 463.219 56.1514 456.535 56.1514C449.85 56.1514 444.432 62.6264 444.432 70.6137C444.432 78.601 449.85 85.076 456.535 85.076Z" fill="url(#paint10_linear)"/>
<path d="M450.251 65.2576C448.446 64.9017 445.645 66.2867 443.953 66.2278C441.398 66.139 433.054 54.0374 437.777 57.4944C442.5 60.9513 442.924 57.9907 446.496 57.4944C450.069 56.998 449.757 51.9632 454.126 51.1867C456.887 50.6954 456.04 50.8228 459.189 51.1867C462.337 51.5506 463.112 51.0652 466.72 52.6423C470.327 54.2194 471.508 54.0978 473.628 57.4944C475.747 60.8909 474.654 63.3326 475.197 66.2278C475.796 69.4205 474.654 74.5245 473.628 76.6758C472.591 78.8511 468.724 78.3963 467.712 78.3533C466.873 78.3177 466.643 71.9911 464.391 69.8703C462.139 67.7496 462.772 72.3244 459.189 70.6148C455.605 68.9053 453.811 65.9607 450.251 65.2576Z" fill="#FD7D7D"/>
<path d="M448.891 71.889C449.36 71.889 449.74 71.5081 449.74 71.0382C449.74 70.5684 449.36 70.1875 448.891 70.1875C448.422 70.1875 448.042 70.5684 448.042 71.0382C448.042 71.5081 448.422 71.889 448.891 71.889Z" fill="#333333"/>
<path d="M456.91 74.8672C457.178 75.6286 457.694 76.2779 458.374 76.7108C459.305 77.1733 460.313 77.4616 461.347 77.5615" stroke="#333333" stroke-linecap="round"/>
<path d="M456.004 76.249C456.004 76.249 455.356 78.5221 454.29 78.9377C453.224 79.3532 451.014 78.9071 450.908 77.846C450.801 76.7849 452.193 77.8977 453.258 77.4821C454.323 77.0666 456.004 76.249 456.004 76.249Z" fill="#FF4D4D"/>
<path d="M462.376 74.4571C462.269 74.2686 462.21 74.0566 462.204 73.8399C462.202 73.7374 462.21 73.6348 462.226 73.5336C462.207 73.4448 462.203 73.3536 462.214 73.2635C462.226 73.1783 462.247 73.0946 462.277 73.0139L462.358 72.7345C462.398 72.5998 462.439 72.4681 462.476 72.3342C462.53 72.1072 462.564 71.8758 462.576 71.6428C462.576 71.4696 462.539 71.2978 462.537 71.1203V71.0599C462.513 70.9673 462.499 70.8724 462.495 70.7768C462.493 70.6114 462.508 70.4462 462.54 70.2841C462.52 70.1884 462.509 70.0908 462.51 69.993C462.501 69.7325 462.546 69.473 462.64 69.2302C462.71 69.0578 462.79 68.8901 462.882 68.7281C463.056 68.4037 463.327 68.1424 463.658 67.9814C463.767 67.9294 463.881 67.8868 463.998 67.854C464.28 67.7382 464.582 67.6803 464.887 67.6837C464.925 67.6837 464.96 67.6837 465 67.6837C465.367 67.6967 465.717 67.844 465.983 68.0978C466.211 68.2927 466.38 68.5472 466.472 68.8329C466.524 69.0364 466.546 69.2466 466.537 69.4566C466.57 69.9068 466.479 70.3576 466.273 70.7593C466.121 70.9296 465.531 71.4208 465.38 71.5904C465.229 71.76 465.101 71.9492 464.967 72.1282C464.839 72.3027 464.726 72.4874 464.629 72.6806C464.653 72.642 464.671 72.5991 464.696 72.5605C464.649 72.6457 464.61 72.7315 464.571 72.8211C464.505 72.9666 464.439 73.1209 464.373 73.2723C464.307 73.436 464.244 73.6063 464.171 73.7664C464.115 73.8922 464.051 74.0138 463.977 74.1303C463.909 74.2335 463.832 74.3308 463.747 74.4214C463.663 74.5166 463.565 74.5983 463.456 74.6638C463.356 74.735 463.243 74.7863 463.124 74.8152C463.078 74.8259 463.031 74.8313 462.983 74.8312C462.858 74.8288 462.736 74.7929 462.629 74.7271C462.522 74.6614 462.435 74.5681 462.376 74.4571ZM462.483 72.3087C462.491 72.2796 462.497 72.2505 462.505 72.2214L462.483 72.3087Z" fill="#FFE6E6"/>
<path d="M463.704 70.2714C463.686 70.2714 464.197 70.2714 464.179 70.2714C464 70.2489 464.149 70.4068 464.179 70.2714C464.922 66.8807 463.925 63.3808 462.811 60.696C462.303 59.4123 461.54 58.2453 460.569 57.2655C459.597 56.2857 458.438 55.5136 457.16 54.996C455.706 54.4306 454.164 54.1264 452.605 54.0972C452.424 54.0913 452.282 53.9749 452.29 53.8381C452.307 53.7624 452.352 53.696 452.416 53.652C452.48 53.608 452.558 53.5897 452.634 53.6008C454.291 53.6327 455.929 53.9569 457.473 54.5586C458.821 55.1003 460.045 55.9105 461.071 56.9399C462.097 57.9694 462.903 59.1967 463.442 60.5475C464.586 63.3058 465.534 66.8064 464.774 70.2714C464.747 70.393 463.863 70.2714 463.704 70.2714Z" fill="url(#paint11_linear)"/>
<path d="M464.229 71.3125C464.905 71.3125 465.453 70.7638 465.453 70.0869C465.453 69.41 464.905 68.8613 464.229 68.8613C463.553 68.8613 463.005 69.41 463.005 70.0869C463.005 70.7638 463.553 71.3125 464.229 71.3125Z" fill="#FF4D4D"/>
<path d="M456.163 77.0943C456.098 77.0926 456.037 77.0661 455.992 77.0204C455.946 76.9747 455.92 76.9133 455.919 76.8488C455.918 76.7844 455.941 76.7219 455.984 76.6742C456.028 76.6266 456.088 76.5975 456.152 76.5929C457.996 76.5141 459.763 75.8284 461.179 74.6421C462.595 73.4557 463.581 71.8348 463.984 70.0305C463.99 69.997 464.003 69.9651 464.021 69.9366C464.04 69.9082 464.064 69.8839 464.092 69.8651C464.121 69.8463 464.152 69.8335 464.186 69.8273C464.219 69.8212 464.253 69.822 464.286 69.8295C464.32 69.837 464.351 69.8512 464.378 69.8712C464.406 69.8912 464.429 69.9166 464.446 69.9458C464.463 69.975 464.475 70.0074 464.479 70.0411C464.484 70.0748 464.481 70.1091 464.472 70.1418C464.044 72.0531 463 73.7699 461.499 75.0264C459.999 76.283 458.127 77.0093 456.174 77.0929L456.163 77.0943Z" fill="#FF4D4D"/>
<path d="M455.429 78.3427C456.018 78.3427 456.496 77.8639 456.496 77.2734C456.496 76.6828 456.018 76.2041 455.429 76.2041C454.839 76.2041 454.361 76.6828 454.361 77.2734C454.361 77.8639 454.839 78.3427 455.429 78.3427Z" fill="black"/>
<path d="M452.712 70.5067C452.996 70.3773 453.303 70.3105 453.615 70.3105C453.926 70.3105 454.234 70.3773 454.517 70.5067C454.833 70.6489 455.106 70.8704 455.311 71.1498C455.515 71.4291 455.644 71.7568 455.685 72.1009" stroke="#333333" stroke-linecap="round"/>
<path d="M445.769 61.8608C447.575 61.8608 449.039 60.3945 449.039 58.5857C449.039 56.7769 447.575 55.3105 445.769 55.3105C443.963 55.3105 442.5 56.7769 442.5 58.5857C442.5 60.3945 443.963 61.8608 445.769 61.8608Z" fill="#FD7D7D"/>
<path d="M449.403 59.6769C451.208 59.6769 452.672 58.2107 452.672 56.4019C452.672 54.5932 451.208 53.127 449.403 53.127C447.597 53.127 446.133 54.5932 446.133 56.4019C446.133 58.2107 447.597 59.6769 449.403 59.6769Z" fill="#FD7D7D"/>
<path d="M473.38 64.7718C475.186 64.7718 476.65 63.3055 476.65 61.4968C476.65 59.688 475.186 58.2217 473.38 58.2217C471.574 58.2217 470.11 59.688 470.11 61.4968C470.11 63.3055 471.574 64.7718 473.38 64.7718Z" fill="#FD7D7D"/>
<path d="M473.38 69.1379C475.186 69.1379 476.65 67.6716 476.65 65.8629C476.65 64.0542 475.186 62.5879 473.38 62.5879C471.574 62.5879 470.11 64.0542 470.11 65.8629C470.11 67.6716 471.574 69.1379 473.38 69.1379Z" fill="#FD7D7D"/>
<path d="M473.38 73.5053C475.186 73.5053 476.65 72.039 476.65 70.2302C476.65 68.4214 475.186 66.9551 473.38 66.9551C471.574 66.9551 470.11 68.4214 470.11 70.2302C470.11 72.039 471.574 73.5053 473.38 73.5053Z" fill="#FD7D7D"/>
<path d="M336.16 71.9197L317.594 82.6567C316.204 83.4606 315.727 85.2411 316.53 86.6334L327.249 105.231C328.052 106.623 329.83 107.1 331.22 106.296L349.786 95.5591C351.177 94.7552 351.653 92.9747 350.85 91.5824L340.131 72.9852C339.328 71.5928 337.551 71.1158 336.16 71.9197Z" fill="#F9FFF2"/>
<path d="M335.784 76.2953L317.217 87.0323C316.175 87.6353 315.818 88.9706 316.419 90.0149L327.139 108.612C327.741 109.656 329.074 110.014 330.117 109.411L348.684 98.6741C349.726 98.0712 350.083 96.7358 349.481 95.6916L338.762 77.0945C338.16 76.0502 336.827 75.6924 335.784 76.2953Z" stroke="black" stroke-width="2"/>
<path d="M59.0322 118.753C72.1765 118.753 82.832 108.08 82.832 94.9146C82.832 81.749 72.1765 71.0762 59.0322 71.0762C45.888 71.0762 35.2324 81.749 35.2324 94.9146C35.2324 108.08 45.888 118.753 59.0322 118.753Z" fill="#E6E6E6"/>
<path d="M53.4975 113.218C66.6418 113.218 77.2973 102.545 77.2973 89.3794C77.2973 76.2138 66.6418 65.541 53.4975 65.541C40.3533 65.541 29.6978 76.2138 29.6978 89.3794C29.6978 102.545 40.3533 113.218 53.4975 113.218Z" fill="white"/>
<path d="M53.4975 112.491C66.2405 112.491 76.5708 102.144 76.5708 89.3801C76.5708 76.6165 66.2405 66.2695 53.4975 66.2695C40.7545 66.2695 30.4243 76.6165 30.4243 89.3801C30.4243 102.144 40.7545 112.491 53.4975 112.491Z" stroke="#333333" stroke-width="2"/>
<path d="M53.4054 82.834C53.6059 82.834 60.6438 103.939 60.6438 103.939L68.2731 105.748C68.2731 105.748 67.9163 106.832 63.9026 109.446C59.8888 112.061 55.474 111.855 49.6089 111.344C46.1975 111.093 42.9681 109.705 40.4355 107.402L49.6089 103.939L48.4049 82.834H53.4054Z" fill="url(#paint12_linear)"/>
<path d="M52.5006 95.6548C57.4883 95.6548 61.5316 91.8747 61.5316 87.2117C61.5316 82.5487 57.4883 78.7686 52.5006 78.7686C47.513 78.7686 43.4697 82.5487 43.4697 87.2117C43.4697 91.8747 47.513 95.6548 52.5006 95.6548Z" fill="#FFE5E6"/>
<path d="M39.2385 94.6635C38.4616 92.2702 38.2132 89.7363 38.5105 87.2373C38.8079 84.7383 39.6438 82.3339 40.9605 80.1904C44.2215 75.0145 46.9811 73.6572 52.6007 73.9585C52.7562 73.9668 52.9092 73.9762 53.0599 73.9869C52.7271 73.4814 52.5052 72.9109 52.4087 72.3131C52.3123 71.7154 52.3435 71.1039 52.5004 70.5191C53.0366 68.3649 54.9541 66.988 56.7823 67.445C58.6104 67.902 59.6581 70.0184 59.1219 72.1755C58.8686 73.26 58.2092 74.2056 57.28 74.8173C59.8689 75.8143 61.5669 77.78 63.4379 81.4C66.2477 86.8269 67.3514 88.7366 66.0471 92.053C64.7429 95.3695 61.0292 97.4276 58.2195 94.6635C55.4097 91.8995 57.8184 86.3721 54.8045 83.608C51.7905 80.8439 47.0117 80.8425 44.8544 83.608C42.6971 86.3735 46.9862 91.8995 45.6616 94.6635C45.3506 95.3489 44.8575 95.9354 44.2361 96.359C43.6147 96.7825 42.889 97.0268 42.1384 97.0652C40.9351 97.0674 39.7871 96.3534 39.2385 94.6635Z" fill="#333333"/>
<path d="M47.3461 87.4026C47.96 87.4026 48.4578 86.9041 48.4578 86.2892C48.4578 85.6743 47.96 85.1758 47.3461 85.1758C46.7321 85.1758 46.2344 85.6743 46.2344 86.2892C46.2344 86.9041 46.7321 87.4026 47.3461 87.4026Z" fill="#333333"/>
<path d="M52.349 87.4026C52.963 87.4026 53.4607 86.9041 53.4607 86.2892C53.4607 85.6743 52.963 85.1758 52.349 85.1758C51.735 85.1758 51.2373 85.6743 51.2373 86.2892C51.2373 86.9041 51.735 87.4026 52.349 87.4026Z" fill="#333333"/>
<path d="M52.9061 91.3022C52.6089 91.7578 52.2549 92.1737 51.8526 92.5397C51.4673 92.9382 50.9552 93.1891 50.4046 93.2497C49.1534 93.2497 47.9028 91.3008 47.9028 91.3008L52.9061 91.3022Z" fill="#FF4D4D"/>
<path d="M48.4575 91.3008H52.3492C52.3492 91.3739 52.3348 91.4464 52.3068 91.514C52.2788 91.5815 52.2378 91.6429 52.1861 91.6946C52.1344 91.7463 52.0731 91.7873 52.0055 91.8152C51.938 91.8432 51.8657 91.8575 51.7926 91.8574H49.0134C48.8659 91.8574 48.7246 91.7987 48.6203 91.6944C48.5161 91.59 48.4575 91.4484 48.4575 91.3008V91.3008Z" fill="white"/>
<path d="M49.9061 87.196C49.9061 87.196 48.5109 88.7841 48.6468 89.4196C48.7827 90.0551 50.4497 89.7386 50.4497 89.7386" stroke="#333333" stroke-linecap="round"/>
<path d="M51.5156 84.3408H54.2949" stroke="#333333" stroke-linecap="round"/>
<path d="M45.3076 92.2754C45.3076 92.6 47.6241 95.7548 51.3305 95.5699" stroke="#333333" stroke-linecap="round"/>
<path d="M49.1069 95.5771L50.0333 106.984" stroke="#333333" stroke-linecap="round"/>
<path d="M39.9961 107.696L46.5762 105.003C46.5762 105.003 45.9361 107.696 50.7825 107.696C55.6289 107.696 65.983 105.003 65.983 105.003L69.5855 105.357L67.5452 107.694C67.5452 107.694 60.1106 112.222 52.9703 112.222C45.83 112.222 39.9961 107.696 39.9961 107.696Z" fill="#396AFC"/>
<path d="M51.0391 313.069C64.1834 313.069 74.8389 302.396 74.8389 289.23C74.8389 276.065 64.1834 265.392 51.0391 265.392C37.8948 265.392 27.2393 276.065 27.2393 289.23C27.2393 302.396 37.8948 313.069 51.0391 313.069Z" fill="#E6E6E6"/>
<path d="M45.5049 307.534C58.6492 307.534 69.3047 296.861 69.3047 283.696C69.3047 270.53 58.6492 259.857 45.5049 259.857C32.3606 259.857 21.7051 270.53 21.7051 283.696C21.7051 296.861 32.3606 307.534 45.5049 307.534Z" fill="white"/>
<path d="M45.5049 306.807C58.2479 306.807 68.5781 296.459 68.5781 283.696C68.5781 270.932 58.2479 260.585 45.5049 260.585C32.7619 260.585 22.4316 270.932 22.4316 283.696C22.4316 296.459 32.7619 306.807 45.5049 306.807Z" stroke="#333333" stroke-width="2"/>
<path d="M45.4132 277.151C45.6137 277.151 52.6516 298.258 52.6516 298.258L60.2809 300.066C60.2809 300.066 59.9241 301.151 55.9104 303.765C51.8966 306.379 47.4818 306.174 41.6167 305.662C38.2053 305.411 34.9759 304.023 32.4434 301.72L41.6167 298.258L40.4127 277.151H45.4132Z" fill="url(#paint13_linear)"/>
<path d="M44.5085 289.971C49.4961 289.971 53.5394 286.191 53.5394 281.528C53.5394 276.865 49.4961 273.085 44.5085 273.085C39.5208 273.085 35.4775 276.865 35.4775 281.528C35.4775 286.191 39.5208 289.971 44.5085 289.971Z" fill="#FFE5E6"/>
<path d="M31.2463 288.98C30.4694 286.587 30.221 284.053 30.5183 281.554C30.8157 279.055 31.6516 276.65 32.9684 274.507C36.2293 269.331 38.989 267.974 44.6085 268.275C44.764 268.283 44.9171 268.293 45.0677 268.303C44.7349 267.798 44.513 267.227 44.4165 266.63C44.3201 266.032 44.3514 265.42 44.5082 264.836C45.0445 262.681 46.962 261.304 48.7901 261.761C50.6182 262.218 51.666 264.335 51.1298 266.492C50.8764 267.576 50.2171 268.522 49.2878 269.134C51.8767 270.131 53.5748 272.097 55.4458 275.716C58.2555 281.144 59.3592 283.053 58.055 286.37C56.7507 289.686 53.0371 291.744 50.2273 288.98C47.4175 286.216 49.8262 280.689 46.8123 277.925C43.7983 275.16 39.0195 275.159 36.8622 277.925C34.7049 280.69 38.9941 286.216 37.6695 288.98C37.3584 289.666 36.8653 290.252 36.2439 290.676C35.6225 291.099 34.8968 291.343 34.1462 291.382C32.9429 291.384 31.7949 290.67 31.2463 288.98Z" fill="#333333"/>
<path d="M39.3539 281.718C39.9679 281.718 40.4656 281.22 40.4656 280.605C40.4656 279.99 39.9679 279.491 39.3539 279.491C38.7399 279.491 38.2422 279.99 38.2422 280.605C38.2422 281.22 38.7399 281.718 39.3539 281.718Z" fill="#333333"/>
<path d="M44.3573 281.718C44.9713 281.718 45.469 281.22 45.469 280.605C45.469 279.99 44.9713 279.491 44.3573 279.491C43.7433 279.491 43.2456 279.99 43.2456 280.605C43.2456 281.22 43.7433 281.718 44.3573 281.718Z" fill="#333333"/>
<path d="M44.9135 285.618C44.6162 286.073 44.2622 286.489 43.86 286.855C43.4746 287.253 42.9625 287.504 42.4119 287.565C41.1607 287.565 39.9102 285.616 39.9102 285.616L44.9135 285.618Z" fill="#FF4D4D"/>
<path d="M40.4658 285.617H44.3575C44.3575 285.69 44.3431 285.763 44.3151 285.831C44.2871 285.898 44.2461 285.96 44.1944 286.011C44.1427 286.063 44.0814 286.104 44.0138 286.132C43.9463 286.16 43.874 286.175 43.8009 286.174H41.0217C40.8742 286.174 40.7329 286.116 40.6286 286.011C40.5244 285.907 40.4658 285.765 40.4658 285.617V285.617Z" fill="white"/>
<path d="M41.9144 281.513C41.9144 281.513 40.5192 283.102 40.6551 283.737C40.791 284.373 42.458 284.056 42.458 284.056" stroke="#333333" stroke-linecap="round"/>
<path d="M43.5229 278.657H46.3022" stroke="#333333" stroke-linecap="round"/>
<path d="M37.3154 286.592C37.3154 286.916 39.6319 290.071 43.3383 289.886" stroke="#333333" stroke-linecap="round"/>
<path d="M41.1147 289.894L42.0411 301.3" stroke="#333333" stroke-linecap="round"/>
<path d="M32.0039 302.012L38.584 299.319C38.584 299.319 37.9439 302.012 42.7903 302.012C47.6367 302.012 57.9908 299.319 57.9908 299.319L61.5933 299.674L59.553 302.01C59.553 302.01 52.1184 306.539 44.9781 306.539C37.8378 306.539 32.0039 302.012 32.0039 302.012Z" fill="#396AFC"/>
<defs>
<linearGradient id="paint0_linear" x1="444.394" y1="35.6611" x2="464.097" y2="70.2023" gradientUnits="userSpaceOnUse">
<stop stop-color="#FEE185"/>
<stop offset="1" stop-color="#FFE36B"/>
</linearGradient>
<linearGradient id="paint1_linear" x1="444.394" y1="160.838" x2="464.098" y2="195.379" gradientUnits="userSpaceOnUse">
<stop stop-color="#FEE185"/>
<stop offset="1" stop-color="#FFE36B"/>
</linearGradient>
<linearGradient id="paint2_linear" x1="444.394" y1="285.289" x2="464.098" y2="319.83" gradientUnits="userSpaceOnUse">
<stop stop-color="#FEE185"/>
<stop offset="1" stop-color="#FFE36B"/>
</linearGradient>
<linearGradient id="paint3_linear" x1="475.435" y1="354.61" x2="451.575" y2="344.137" gradientUnits="userSpaceOnUse">
<stop stop-color="#FF4D4D"/>
<stop offset="0.41" stop-color="#FFB7B7"/>
<stop offset="1" stop-color="#FFE5E6"/>
</linearGradient>
<linearGradient id="paint4_linear" x1="460.577" y1="322.922" x2="503.94" y2="347.032" gradientUnits="userSpaceOnUse">
<stop stop-color="#FFE6E6"/>
<stop offset="1" stop-color="#FF4D4D"/>
</linearGradient>
<linearGradient id="paint5_linear" x1="464.677" y1="312.125" x2="455.774" y2="305.199" gradientUnits="userSpaceOnUse">
<stop stop-color="#FF4D4D"/>
<stop offset="1" stop-color="#FD7D7D"/>
</linearGradient>
<linearGradient id="paint6_linear" x1="475.435" y1="232.287" x2="451.575" y2="221.815" gradientUnits="userSpaceOnUse">
<stop stop-color="#FF4D4D"/>
<stop offset="0.41" stop-color="#FFB7B7"/>
<stop offset="1" stop-color="#FFE5E6"/>
</linearGradient>
<linearGradient id="paint7_linear" x1="460.577" y1="200.601" x2="503.94" y2="224.711" gradientUnits="userSpaceOnUse">
<stop stop-color="#FFE6E6"/>
<stop offset="1" stop-color="#FF4D4D"/>
</linearGradient>
<linearGradient id="paint8_linear" x1="464.677" y1="189.801" x2="455.774" y2="182.875" gradientUnits="userSpaceOnUse">
<stop stop-color="#FF4D4D"/>
<stop offset="1" stop-color="#FD7D7D"/>
</linearGradient>
<linearGradient id="paint9_linear" x1="475.435" y1="106.437" x2="451.575" y2="95.9644" gradientUnits="userSpaceOnUse">
<stop stop-color="#FF4D4D"/>
<stop offset="0.41" stop-color="#FFB7B7"/>
<stop offset="1" stop-color="#FFE5E6"/>
</linearGradient>
<linearGradient id="paint10_linear" x1="460.577" y1="74.7499" x2="503.94" y2="98.8605" gradientUnits="userSpaceOnUse">
<stop stop-color="#FFE6E6"/>
<stop offset="1" stop-color="#FF4D4D"/>
</linearGradient>
<linearGradient id="paint11_linear" x1="464.677" y1="63.953" x2="455.774" y2="57.0269" gradientUnits="userSpaceOnUse">
<stop stop-color="#FF4D4D"/>
<stop offset="1" stop-color="#FD7D7D"/>
</linearGradient>
<linearGradient id="paint12_linear" x1="54.3543" y1="82.834" x2="123.81" y2="140.854" gradientUnits="userSpaceOnUse">
<stop stop-color="#FFE5E6"/>
<stop offset="1" stop-color="#FF4D4D"/>
</linearGradient>
<linearGradient id="paint13_linear" x1="46.3621" y1="277.151" x2="115.82" y2="335.171" gradientUnits="userSpaceOnUse">
<stop stop-color="#FFE5E6"/>
<stop offset="1" stop-color="#FF4D4D"/>
</linearGradient>
</defs>
</svg>
